<svg width="150" height="55" viewBox="0 0 150 55" fill="none" xmlns="http://www.w3.org/2000/svg">
<g clip-path="url(#clip0_3_46)">
<path d="M21.1223 17.297L23.0366 17.254C23.3234 17.254 23.4668 17.3543 23.4668 17.5551C23.4668 17.6555 23.4238 17.7343 23.3377 17.7917C23.266 17.8491 23.1513 17.9207 22.9936 18.0068C22.8358 18.0928 22.7068 18.186 22.6064 18.2864C22.5204 18.3724 22.4487 18.4513 22.3913 18.523C22.3483 18.5947 22.2981 18.6879 22.2407 18.8026C22.1834 18.903 22.1404 18.9891 22.1117 19.0607C22.0113 19.2472 21.0362 21.4339 19.1864 25.6211C17.3366 29.794 16.3113 32.0884 16.1106 32.5041C15.9098 32.9199 15.7521 33.1279 15.6373 33.1279C15.4939 33.1279 15.1641 32.4897 14.6479 31.2136C14.5045 30.898 14.3109 30.4607 14.0672 29.9015C13.8377 29.3423 13.637 28.8691 13.4649 28.4819C13.3072 28.0947 13.1423 27.7004 12.9702 27.2989C12.626 26.4815 12.4038 26.0728 12.3034 26.0728C12.16 26.0728 11.6725 27.0623 10.8407 29.0411C10.0234 31.02 9.59319 32.081 9.55018 32.2245C9.52151 32.368 9.49281 32.4682 9.46414 32.5257C9.44979 32.5831 9.43547 32.6332 9.42112 32.6762C9.40677 32.7192 9.39245 32.7623 9.3781 32.8053C9.36375 32.8483 9.34943 32.8842 9.33508 32.9128C9.32073 32.9414 9.30641 32.9703 9.29206 32.9989C9.29206 33.0274 9.2849 33.049 9.27055 33.0634C9.2562 33.092 9.24188 33.1135 9.22753 33.1279C9.21319 33.1424 9.19886 33.1494 9.18452 33.1494C9.1415 33.178 9.10564 33.1924 9.07697 33.1924C8.94791 33.1924 8.79018 32.9844 8.60376 32.5687C8.41734 32.1671 8.08037 31.3712 7.59282 30.1811C7.10526 28.9766 6.52451 27.643 5.85055 26.1804C5.19092 24.7177 4.39507 22.8392 3.46301 20.5449C3.19054 19.8566 2.8966 19.3189 2.58112 18.9317C2.26565 18.5302 1.98602 18.2792 1.74225 18.1789C1.49848 18.0785 1.27621 18.0211 1.07546 18.0068C0.874705 17.9924 0.716967 17.9638 0.602251 17.9207C0.487535 17.8777 0.430176 17.763 0.430176 17.5766C0.430176 17.3902 0.623761 17.297 1.01093 17.297L3.37697 17.3615L5.22678 17.297C5.35584 17.297 5.43471 17.3185 5.46338 17.3615C5.5064 17.3902 5.52791 17.4547 5.52791 17.5551C5.52791 17.6411 5.37019 17.763 5.0547 17.9207C4.75357 18.0785 4.60301 18.2936 4.60301 18.566C4.60301 18.8528 4.8181 19.4623 5.24829 20.3943C6.68226 23.6064 7.62149 25.743 8.06602 26.8041C8.52488 27.8653 8.82602 28.5608 8.96942 28.8906C9.2562 29.5214 9.44263 29.837 9.52867 29.837C9.58603 29.837 9.81545 29.3924 10.217 28.5034C10.6185 27.6143 10.9124 26.9404 11.0989 26.4815C11.2853 26.0226 11.4143 25.7143 11.486 25.5566C11.6438 25.2555 11.7226 25.0189 11.7226 24.8468C11.7226 24.6604 11.2924 23.5992 10.4321 21.6634C9.48565 19.5698 8.87622 18.4155 8.60376 18.2004C8.37432 18.0283 8.18792 17.9423 8.04452 17.9423L7.80791 17.9207C7.40639 17.8777 7.16263 17.8419 7.07659 17.8132C6.99055 17.7702 6.94753 17.6913 6.94753 17.5766C6.94753 17.3759 7.15547 17.2755 7.57131 17.2755L9.93735 17.3615L11.357 17.2755C11.7872 17.2755 12.0023 17.3256 12.0023 17.426C12.0023 17.5264 11.9234 17.6196 11.7656 17.7057C11.3068 17.9494 11.0773 18.2219 11.0773 18.523C11.0773 18.8098 11.2996 19.4551 11.7441 20.4589C11.7728 20.5162 11.8732 20.7528 12.0453 21.1687C12.4181 22.1438 12.6547 22.6313 12.7551 22.6313C12.8698 22.6313 13.1566 22.0075 13.6155 20.76C14.0743 19.4981 14.3038 18.7453 14.3038 18.5015C14.3038 18.2577 14.1962 18.0857 13.9811 17.9853C13.766 17.8706 13.5509 17.7917 13.3358 17.7487C13.1207 17.6913 13.0132 17.6053 13.0132 17.4906C13.0132 17.3328 13.1709 17.254 13.4864 17.254L14.863 17.297H15.2287C15.4294 17.297 15.8094 17.2755 16.3687 17.2324H16.5623C16.7487 17.2324 16.8419 17.3041 16.8419 17.4475C16.8419 17.5909 16.7057 17.7057 16.4332 17.7917C16.1607 17.8777 15.9385 18.0068 15.7664 18.1789C15.6087 18.3366 15.4079 18.7094 15.1641 19.2974C14.9347 19.8709 14.6049 20.6524 14.1747 21.6419C13.7589 22.6313 13.5151 23.2264 13.4434 23.4272C13.3717 23.6279 13.3358 23.8 13.3358 23.9434C13.3358 24.0724 13.7732 25.1121 14.6479 27.0623C15.5226 29.0125 16.0389 29.9875 16.1966 29.9875C16.3687 29.9875 17.2004 28.1807 18.6917 24.5672C20.1973 20.9392 20.9502 18.9819 20.9502 18.6951C20.9502 18.394 20.8641 18.186 20.6921 18.0713C20.5343 17.9423 20.3551 17.8634 20.1543 17.8347C19.6238 17.7917 19.3585 17.677 19.3585 17.4906C19.3585 17.3902 19.38 17.3328 19.423 17.3185C19.466 17.2898 19.5807 17.2755 19.7672 17.2755L21.1223 17.297ZM28.5291 24.9113L28.5937 21.1902C28.5937 20.803 28.5792 20.1506 28.5506 19.2328C28.5362 18.817 28.3571 18.4943 28.0128 18.2649C27.6687 18.0355 27.2672 17.9136 26.8083 17.8992C26.5789 17.8992 26.4641 17.7702 26.4641 17.5121C26.4641 17.3113 26.6649 17.2109 27.0664 17.2109L27.6472 17.254L32.8956 17.3615L37.1974 17.2755C37.4697 17.2755 37.6061 17.4404 37.6061 17.7702C37.6061 17.8562 37.5631 18.143 37.4771 18.6306C37.391 19.1038 37.348 19.4766 37.348 19.7491C37.348 20.2079 37.2331 20.4374 37.0039 20.4374C36.7888 20.4374 36.6812 20.2653 36.6812 19.9211C36.6812 19.577 36.5592 19.2472 36.3156 18.9317C36.0716 18.6162 35.7705 18.4513 35.4122 18.437C34.1216 18.3366 33.1322 18.2864 32.4439 18.2864H31.8846C31.1389 18.2864 30.7087 18.3366 30.594 18.437C30.379 18.6234 30.2714 20.2079 30.2714 23.1906C30.2714 23.9075 30.4075 24.2732 30.6801 24.2875H32.788C33.6484 24.2875 34.2218 24.2589 34.5088 24.2015C35.2542 24.0581 35.6773 23.6853 35.7778 23.083C35.8208 22.8392 35.914 22.7174 36.0574 22.7174C36.2007 22.7174 36.2867 22.7389 36.3156 22.7819C36.3441 22.8249 36.3586 22.9181 36.3586 23.0615L36.1865 25.32L36.251 26.6321C36.251 26.9906 36.2006 27.1698 36.1005 27.1698C35.8854 27.1698 35.7274 26.9977 35.6273 26.6536C35.4263 26.0513 35.2472 25.7 35.0895 25.5996C34.7884 25.3989 34.2648 25.2985 33.5193 25.2985H31.9706L31.2823 25.277H31.1318C30.5437 25.277 30.2499 25.4132 30.2499 25.6857L30.2069 28.783V29.6434C30.2069 30.6758 30.379 31.2495 30.7231 31.3641C31.0814 31.4646 31.3899 31.5147 31.648 31.5147C33.799 31.5147 35.3547 31.3426 36.3156 30.9985C37.1615 30.6829 37.6777 30.3532 37.8642 30.0091C38.0363 29.6505 38.194 29.4713 38.3374 29.4713C38.5095 29.4713 38.5956 29.5933 38.5956 29.837C38.5956 30.4537 38.2871 31.0774 37.6706 31.7083C37.0539 32.3391 36.5162 32.6547 36.0574 32.6547C35.025 32.6547 33.8561 32.6188 32.5514 32.5472C31.2608 32.4756 30.4576 32.4396 30.1423 32.4396L27.217 32.6332C26.9158 32.6332 26.7653 32.5616 26.7653 32.4181V32.16C26.7653 32.074 26.837 32.0165 26.9804 31.9879C27.1381 31.9735 27.3819 31.8874 27.7117 31.7298C28.0415 31.5722 28.2566 31.2422 28.3571 30.7404C28.4717 30.2386 28.5291 29.1846 28.5291 27.5785V24.9113ZM42.3277 31.9449L42.8224 31.9234C43.1236 31.9234 43.3746 31.6724 43.5753 31.1706C43.7043 30.8408 43.7833 30.3173 43.8119 29.6004C43.8405 28.8835 43.8549 26.754 43.8549 23.2121V19.5555C43.8549 19.326 43.7833 19.0679 43.6398 18.7811C43.3531 18.1789 42.7939 17.8777 41.9621 17.8777C41.7184 17.8777 41.5964 17.7917 41.5964 17.6196C41.5964 17.4045 41.6609 17.297 41.79 17.297L42.6504 17.3185L45.7907 17.297L48.1568 17.2324C49.4618 17.2324 50.5514 17.5479 51.4262 18.1789C52.301 18.7955 52.7383 19.6774 52.7383 20.8245C52.7383 22.0577 52.093 23.0687 50.8024 23.8574C50.6589 23.9577 50.5873 24.0151 50.5873 24.0294C50.5873 24.0724 50.7093 24.1298 50.953 24.2015C51.1967 24.2589 51.4907 24.3664 51.8349 24.5241C52.179 24.6676 52.5161 24.8683 52.8458 25.1264C53.19 25.3845 53.484 25.7717 53.7277 26.2879C53.9714 26.7898 54.0934 27.3706 54.0934 28.0302C54.0934 28.6755 53.9142 29.3493 53.5556 30.0521C53.1971 30.7548 52.7383 31.2996 52.179 31.6868C51.6198 32.074 51.0676 32.3465 50.5228 32.5041C49.978 32.6476 49.3684 32.7192 48.6945 32.7192C48.0206 32.7192 47.2104 32.6762 46.264 32.5902C45.3175 32.5186 44.7942 32.4826 44.6938 32.4826L42.844 32.5687H42.5428C42.2417 32.5687 42.0911 32.4682 42.0911 32.2675C42.0911 32.0524 42.1701 31.9449 42.3277 31.9449ZM45.5111 29.6219L45.4896 30.5683C45.4896 31.4287 46.1923 31.8589 47.5975 31.8589H48.0923C48.8666 31.8589 49.5334 31.8158 50.0926 31.7298C50.6663 31.6293 51.1681 31.2852 51.5983 30.6974C52.0429 30.1095 52.2651 29.4354 52.2651 28.6755C52.2651 27.9155 52.136 27.2845 51.8779 26.7826C51.6198 26.2664 51.3257 25.8792 50.996 25.6211C50.6663 25.363 50.2718 25.1623 49.813 25.0189C49.1822 24.8181 48.594 24.7177 48.0492 24.7177L46.3715 24.6962L46.0489 24.6747C45.9198 24.6747 45.8267 24.6962 45.7692 24.7392C45.7118 24.7679 45.6546 24.9042 45.5972 25.1479C45.5397 25.4491 45.5111 26.4528 45.5111 28.1592V29.6219ZM45.6187 20.8245C45.6187 22.6313 45.6688 23.6351 45.7692 23.8358C45.8267 23.9362 46.2354 23.9864 46.9953 23.9864H48.3719C49.2753 23.9864 49.9491 23.7498 50.3938 23.2766C50.8525 22.8034 51.0821 22.1796 51.0821 21.4053C51.0821 20.6309 50.702 19.8709 49.9421 19.1253C49.1963 18.3653 48.1282 17.9853 46.7372 17.9853C46.2925 17.9853 45.9914 18.1215 45.8338 18.394C45.6903 18.6521 45.6187 19.2543 45.6187 20.2007V20.8245Z" fill="white"/>
<path d="M68.2075 21.3679L90.849 0.282959L68.2075 26.0377L59.4339 17.1226V21.3679L65.8019 27.7358L64.3868 29.5754L56.8868 22.0754V10.3301L68.2075 21.3679Z" fill="#E82428"/>
<path d="M68.2076 29.5755L46.1321 54.0566L68.2076 33.5377L79.2453 44.0094V32.6887L71.8868 25.3302L70.3302 27.1698L76.4151 33.5377V37.6415L68.2076 29.5755Z" fill="#E82428"/>
<path d="M85.1728 32.5902L83.3445 32.6332C83.029 32.6332 82.8713 32.5186 82.8713 32.2891C82.8713 32.16 82.9644 32.081 83.151 32.0524C83.3375 32.0094 83.5667 31.8948 83.8393 31.7083C84.1118 31.5218 84.3054 31.2207 84.42 30.8049C84.5346 30.3747 84.6566 28.991 84.7857 26.6536C84.9147 24.3162 84.9793 22.617 84.9793 21.5558C84.9793 20.4947 84.8072 19.663 84.463 19.0608C84.1189 18.4441 83.5596 18.0928 82.7853 18.0068C82.5988 17.9924 82.5057 17.8849 82.5057 17.6841C82.5057 17.5981 82.5558 17.5192 82.6562 17.4475C82.7567 17.3615 82.8858 17.3185 83.0434 17.3185L83.8608 17.34L84.9147 17.297C85.0438 17.297 85.1944 17.34 85.3664 17.426C85.5385 17.4977 85.639 17.5694 85.6676 17.6411C85.6961 17.6985 85.7751 17.806 85.9042 17.9638C86.0332 18.1072 86.2053 18.3008 86.4204 18.5445C86.6355 18.7883 86.8291 19.0249 87.0011 19.2543C88.9514 21.7924 91.5611 24.854 94.8306 28.4389C94.9166 28.5393 95.0171 28.654 95.1317 28.783C95.2608 28.9121 95.3468 29.0125 95.3898 29.0841C95.4473 29.1416 95.5045 29.1988 95.5619 29.2562C95.6624 29.3567 95.7411 29.4068 95.7985 29.4068C95.942 29.4068 96.0136 28.9622 96.0136 28.0732V25.5566L95.9706 21.1472V20.9966C95.9706 19.6774 95.7411 18.8385 95.2823 18.48C95.1102 18.3509 94.9667 18.2721 94.8521 18.2434C94.7375 18.2004 94.5725 18.1574 94.3574 18.1143C93.7695 17.9996 93.4755 17.8419 93.4755 17.6411C93.4755 17.426 93.6116 17.3185 93.8842 17.3185L95.9276 17.34C95.9276 17.34 96.5728 17.3256 97.8634 17.297C98.1071 17.297 98.2721 17.3256 98.3581 17.383C98.4586 17.426 98.5087 17.4977 98.5087 17.5981C98.5087 17.6985 98.4657 17.7773 98.3796 17.8347C98.265 17.9064 98.057 17.9924 97.7559 18.0928C97.2827 18.3509 97.0461 19.1611 97.0461 20.5234V21.3408L96.8095 31.9879V32.4181C96.8095 32.7478 96.709 32.9128 96.5083 32.9128C96.3793 32.9128 96.2646 32.8627 96.1642 32.7623C91.4035 27.2415 88.5569 23.9649 87.6249 22.9325C86.7071 21.8856 86.1982 21.3623 86.0978 21.3623C85.9543 21.3623 85.8827 21.9502 85.8827 23.126C85.8827 24.2875 85.8541 25.657 85.7966 27.2343C85.7392 28.7974 85.7106 29.6505 85.7106 29.794C85.7106 30.4392 85.8181 30.934 86.0332 31.2781C86.2628 31.6078 86.5064 31.7943 86.7645 31.8374C87.0227 31.8804 87.2593 31.9305 87.4744 31.9879C87.7039 32.0309 87.8185 32.1314 87.8185 32.2891C87.8185 32.4325 87.7899 32.5257 87.7325 32.5687C87.6895 32.6117 87.6034 32.6332 87.4744 32.6332L85.1728 32.5902ZM103.883 24.9113L103.947 21.1902C103.947 20.803 103.933 20.1506 103.904 19.2328C103.89 18.817 103.711 18.4943 103.367 18.2649C103.023 18.0355 102.621 17.9136 102.162 17.8992C101.933 17.8992 101.818 17.7702 101.818 17.5121C101.818 17.3113 102.019 17.2109 102.42 17.2109L103.001 17.254L108.249 17.3615L112.551 17.2755C112.824 17.2755 112.96 17.4404 112.96 17.7702C112.96 17.8562 112.917 18.143 112.831 18.6306C112.745 19.1038 112.702 19.4766 112.702 19.7491C112.702 20.2079 112.587 20.4374 112.358 20.4374C112.143 20.4374 112.035 20.2653 112.035 19.9211C112.035 19.577 111.913 19.2472 111.669 18.9317C111.425 18.6162 111.124 18.4513 110.766 18.437C109.475 18.3366 108.486 18.2864 107.798 18.2864H107.238C106.493 18.2864 106.062 18.3366 105.948 18.437C105.733 18.6234 105.625 20.2079 105.625 23.1906C105.625 23.9075 105.761 24.2732 106.034 24.2875H108.142C109.002 24.2875 109.576 24.2589 109.863 24.2015C110.608 24.0581 111.031 23.6853 111.132 23.083C111.175 22.8393 111.268 22.7174 111.411 22.7174C111.554 22.7174 111.64 22.7389 111.669 22.7819C111.698 22.8249 111.712 22.9181 111.712 23.0615L111.54 25.32L111.605 26.6321C111.605 26.9906 111.554 27.1698 111.454 27.1698C111.239 27.1698 111.081 26.9977 110.981 26.6536C110.78 26.0513 110.601 25.7 110.443 25.5996C110.142 25.3989 109.619 25.2985 108.873 25.2985H107.324L106.636 25.277H106.486C105.897 25.277 105.604 25.4132 105.604 25.6857L105.561 28.783V29.6434C105.561 30.6758 105.733 31.2495 106.077 31.3641C106.435 31.4646 106.744 31.5147 107.002 31.5147C109.153 31.5147 110.709 31.3426 111.669 30.9985C112.515 30.6829 113.032 30.3532 113.218 30.0091C113.39 29.6505 113.548 29.4713 113.691 29.4713C113.863 29.4713 113.949 29.5933 113.949 29.837C113.949 30.4537 113.641 31.0775 113.024 31.7083C112.408 32.3391 111.87 32.6547 111.411 32.6547C110.379 32.6547 109.21 32.6188 107.905 32.5472C106.615 32.4756 105.811 32.4396 105.496 32.4396L102.571 32.6332C102.27 32.6332 102.119 32.5616 102.119 32.4181V32.16C102.119 32.074 102.191 32.0165 102.334 31.9879C102.492 31.9735 102.736 31.8874 103.066 31.7298C103.395 31.5722 103.61 31.2422 103.711 30.7404C103.825 30.2386 103.883 29.1846 103.883 27.5785V24.9113ZM119.402 32.4826L117.682 32.5687C117.409 32.5687 117.237 32.5327 117.165 32.4611C117.094 32.3895 117.058 32.2961 117.058 32.1815C117.058 32.0669 117.101 31.995 117.187 31.9664C117.273 31.9234 117.38 31.9019 117.509 31.9019C117.868 31.8733 118.169 31.7658 118.413 31.5792C118.671 31.3786 118.879 31.1991 119.037 31.0415C119.209 30.8839 119.381 30.6974 119.553 30.4823C119.739 30.2527 119.904 30.0521 120.048 29.88C120.191 29.7079 120.37 29.4784 120.585 29.1917C120.8 28.8906 120.958 28.6684 121.059 28.5249C121.173 28.3673 121.345 28.1234 121.575 27.7936C121.818 27.4494 122.012 27.177 122.155 26.9762C122.313 26.7611 122.543 26.46 122.844 26.0728C123.145 25.6713 123.353 25.3845 123.468 25.2125C123.597 25.0404 123.661 24.9328 123.661 24.8898C123.661 24.8468 123.633 24.7823 123.575 24.6962C123.518 24.5958 123.41 24.4381 123.252 24.223C123.095 23.9936 122.915 23.7426 122.715 23.4702C121.926 22.3804 121.267 21.4555 120.736 20.6955C119.589 19.0034 118.614 18.0713 117.811 17.8992C117.495 17.8992 117.273 17.8491 117.144 17.7487C117.015 17.6483 116.95 17.5479 116.95 17.4475C116.95 17.3472 117 17.2826 117.101 17.254C117.201 17.2109 117.452 17.1894 117.854 17.1894L119.768 17.2755L122.026 17.2325C122.342 17.2325 122.5 17.297 122.5 17.426C122.5 17.5551 122.45 17.6483 122.349 17.7057C122.249 17.763 122.141 17.7917 122.026 17.7917C121.697 17.8204 121.532 17.9781 121.532 18.2649C121.532 18.5374 121.919 19.2328 122.693 20.3513C123.855 22.1151 124.493 23.0543 124.608 23.1691C124.722 23.2838 124.801 23.3411 124.844 23.3411C124.959 23.3411 125.102 23.2192 125.274 22.9755C125.446 22.7174 125.676 22.3876 125.963 21.986C126.249 21.5702 126.5 21.2045 126.715 20.8891C126.945 20.5593 127.174 20.2151 127.404 19.8566C127.92 19.1109 128.178 18.6377 128.178 18.437C128.178 18.2219 128.114 18.0642 127.985 17.9638C127.87 17.8491 127.748 17.7845 127.619 17.7702C127.232 17.7272 127.038 17.6053 127.038 17.4045C127.038 17.2611 127.146 17.1894 127.361 17.1894L129.103 17.2755C129.906 17.2755 130.43 17.2611 130.673 17.2325C130.931 17.2038 131.082 17.1894 131.125 17.1894C131.354 17.1894 131.469 17.2611 131.469 17.4045C131.469 17.5479 131.405 17.6483 131.275 17.7057C131.146 17.7487 130.938 17.8204 130.652 17.9208C130.365 18.0211 130.092 18.1645 129.834 18.3509C129.576 18.523 129.204 18.9389 128.716 19.5985C126.493 22.5811 125.382 24.0868 125.382 24.1155C125.382 24.2159 125.676 24.6891 126.264 25.5351C126.866 26.3811 127.475 27.2487 128.092 28.1377C129.411 30.0591 130.344 31.2422 130.888 31.6868C130.931 31.7298 131.075 31.7728 131.319 31.8158C131.935 31.9305 132.243 32.081 132.243 32.2675C132.243 32.3391 132.236 32.3895 132.222 32.4181C132.164 32.5186 131.942 32.5687 131.555 32.5687L129.254 32.4181C128.537 32.4181 128.006 32.4396 127.662 32.4826C127.318 32.5257 127.117 32.5472 127.06 32.5472C126.873 32.5472 126.78 32.4611 126.78 32.2891C126.78 32.1025 126.959 31.9664 127.318 31.8804C127.69 31.7943 127.877 31.6152 127.877 31.3426C127.877 31.0701 127.461 30.3246 126.629 29.1057C125.626 27.6717 124.988 26.7396 124.715 26.3094C124.443 25.8792 124.256 25.6641 124.156 25.6641C124.127 25.6641 123.962 25.9008 123.661 26.374C123.374 26.8472 122.93 27.4853 122.328 28.2883C121.74 29.0771 121.295 29.715 120.994 30.2026C120.693 30.6903 120.542 31.0774 120.542 31.3641C120.542 31.7513 120.929 31.9449 121.704 31.9449C121.876 31.9449 121.962 32.0669 121.962 32.3106C121.962 32.4682 121.74 32.5472 121.295 32.5472L119.402 32.4826ZM136.201 17.1034C136.387 17.1034 136.968 17.1321 137.943 17.1894C138.932 17.2468 140.868 17.2755 143.75 17.2755C146.633 17.2755 148.375 17.2325 148.977 17.1464C149.135 17.1464 149.242 17.1894 149.3 17.2755C149.357 17.3615 149.386 17.4404 149.386 17.5121L149.515 19.2543C149.515 19.6128 149.493 19.8423 149.45 19.9426C149.407 20.0287 149.314 20.0717 149.171 20.0717C149.056 20.0717 148.956 19.9283 148.87 19.6415C148.798 19.3404 148.719 19.1109 148.633 18.9532C148.418 18.5804 147.794 18.394 146.762 18.394H143.965C143.621 18.394 143.406 18.4656 143.32 18.6091C143.249 18.7381 143.213 19.1253 143.213 19.7706V20.8245L143.148 28.697L143.127 30.0951C143.127 30.7118 143.22 31.1131 143.406 31.2996C143.607 31.4861 143.822 31.6293 144.052 31.7298C144.281 31.8158 144.475 31.8659 144.632 31.8804C145.034 31.909 145.235 32.038 145.235 32.2675C145.235 32.4252 145.199 32.5257 145.127 32.5687C145.055 32.6117 144.919 32.6332 144.718 32.6332L142.331 32.4611L140.137 32.6117C139.606 32.6117 139.341 32.4971 139.341 32.2675C139.341 32.1241 139.384 32.0309 139.47 31.9879C139.556 31.9305 139.721 31.8875 139.965 31.8589C140.223 31.8158 140.388 31.7873 140.459 31.7728C140.947 31.6582 141.219 31.3712 141.277 30.9124C141.42 29.6505 141.492 26.9404 141.492 22.7819L141.47 18.9317C141.47 18.6592 141.391 18.4943 141.234 18.437C141.076 18.3653 140.553 18.3294 139.664 18.3294C138.775 18.3294 138.072 18.3581 137.556 18.4155C137.054 18.4728 136.76 18.5302 136.674 18.5875C136.588 18.6306 136.48 18.7309 136.351 18.8887C136.237 19.0464 136.136 19.2328 136.05 19.4479C135.978 19.6487 135.928 19.8136 135.899 19.9426C135.856 20.2724 135.72 20.4374 135.491 20.4374C135.333 20.4374 135.254 20.3155 135.254 20.0717C135.254 19.4981 135.29 18.9819 135.362 18.523C135.433 18.0498 135.469 17.7773 135.469 17.7057C135.484 17.634 135.491 17.591 135.491 17.5766C135.505 17.5479 135.512 17.5121 135.512 17.4691C135.527 17.4117 135.541 17.3759 135.555 17.3615C135.57 17.3328 135.584 17.3041 135.598 17.2755C135.627 17.2325 135.656 17.2038 135.684 17.1894C135.713 17.1751 135.749 17.1608 135.792 17.1464C135.878 17.1177 136.014 17.1034 136.201 17.1034Z" fill="white"/>
</g>
<defs>
<clipPath id="clip0_3_46">
<rect width="150" height="54.3396" fill="white"/>
</clipPath>
</defs>
</svg>
