<svg width="37" height="36" viewBox="0 0 37 36" fill="none" xmlns="http://www.w3.org/2000/svg">
<g clip-path="url(#clip0_16_735)">
<path d="M31.7001 10.725C31.6971 8.07538 29.5497 5.92792 26.9001 5.92499H25.0731C24.7626 2.52655 21.9128 -0.0750122 18.5001 -0.0750122C15.0873 -0.0750122 12.2376 2.52655 11.927 5.92499H10.1001C7.44898 5.92499 5.30005 8.07391 5.30005 10.725C5.30005 13.3761 7.44898 15.525 10.1001 15.525H16.7001V14.325H10.1001C8.11196 14.325 6.50005 12.7131 6.50005 10.725C6.50005 8.7369 8.11196 7.12499 10.1001 7.12499H13.1001V6.52499C13.1001 3.54257 15.5176 1.12499 18.5001 1.12499C21.4825 1.12499 23.9001 3.54257 23.9001 6.52499V7.12499H26.9001C28.8881 7.12499 30.5001 8.7369 30.5001 10.725C30.5001 12.7131 28.8881 14.325 26.9001 14.325H20.3001V15.525H26.9001C29.5497 15.5221 31.6971 13.3746 31.7001 10.725Z" fill="#910078"/>
<path d="M29.3 34.125V23.925C29.2989 22.9312 28.4938 22.1262 27.5 22.125H26.3V20.8145C27.0896 20.5368 27.5827 19.7505 27.4886 18.9187C27.3946 18.087 26.738 17.4305 25.9063 17.3364C25.0746 17.2424 24.2882 17.7354 24.0105 18.525H19.1V10.9734L20.4758 12.3492L21.3243 11.5008L18.5 8.67654L15.6758 11.5008L16.5243 12.3492L17.9 10.9734V18.525H12.9896C12.7119 17.7354 11.9255 17.2421 11.0938 17.3364C10.2621 17.4305 9.60552 18.0867 9.51147 18.9184C9.41743 19.7502 9.9105 20.5368 10.7 20.8142V22.725H7.10005C6.1063 22.7262 5.30122 23.5312 5.30005 24.525V31.725C5.30122 32.7187 6.1063 33.5238 7.10005 33.525H10.7V34.725H8.90005V35.925H13.7V34.725H11.9V33.525H15.5C16.4938 33.5238 17.2989 32.7187 17.3 31.725V24.525C17.2989 23.5312 16.4938 22.7262 15.5 22.725H11.9V20.8145C12.4083 20.6332 12.8083 20.2333 12.9896 19.725H24.0105C24.1918 20.2333 24.5917 20.6332 25.1 20.8142V22.125H21.5C20.5063 22.1262 19.7012 22.9312 19.7 23.925V34.125C19.7012 35.1187 20.5063 35.9238 21.5 35.925H27.5C28.4938 35.9238 29.2989 35.1187 29.3 34.125ZM16.1 31.725C16.0998 32.0563 15.8314 32.3247 15.5 32.325H7.10005C6.7687 32.3247 6.50034 32.0563 6.50005 31.725V30.525H16.1V31.725ZM15.5 23.925C15.8314 23.9253 16.0998 24.1936 16.1 24.525V29.325H6.50005V24.525C6.50034 24.1936 6.7687 23.9253 7.10005 23.925H15.5ZM11.3 19.725C10.9687 19.725 10.7 19.4563 10.7 19.125C10.7 18.7936 10.9687 18.525 11.3 18.525C11.6314 18.525 11.9 18.7936 11.9 19.125C11.8998 19.4563 11.6314 19.7247 11.3 19.725ZM25.7001 18.525C26.0314 18.525 26.3 18.7936 26.3 19.125C26.3 19.4563 26.0314 19.725 25.7001 19.725C25.3687 19.725 25.1 19.4563 25.1 19.125C25.1003 18.7936 25.3687 18.5253 25.7001 18.525ZM20.9 23.925C20.9003 23.5936 21.1687 23.3253 21.5 23.325H27.5C27.8314 23.3253 28.0998 23.5936 28.1 23.925V31.725H20.9V23.925ZM20.9 34.125V32.925H28.1V34.125C28.0998 34.4563 27.8314 34.7247 27.5 34.725H21.5C21.1687 34.7247 20.9003 34.4563 20.9 34.125Z" fill="#910078"/>
</g>
<defs>
<clipPath id="clip0_16_735">
<rect width="36" height="36" fill="white" transform="translate(0.5)"/>
</clipPath>
</defs>
</svg>
