<svg width="339" height="238" viewBox="0 0 339 238" fill="none" xmlns="http://www.w3.org/2000/svg">
<g filter="url(#filter0_b_16_1152)">
<rect x="73" width="231" height="238" rx="22" fill="white" fill-opacity="0.15"/>
</g>
<path d="M54 141C54 134.373 59.3726 129 66 129H327C333.627 129 339 134.373 339 141V201C339 207.627 333.627 213 327 213H66C59.3726 213 54 207.627 54 201V141Z" fill="#1F1F1F"/>
<rect x="181" y="173" width="115" height="24" rx="6" fill="#333333"/>
<path d="M190.068 189V180.48H190.908V189H190.068ZM198.133 189H197.317V185.508C197.317 184.772 197.209 184.236 196.993 183.9C196.777 183.556 196.437 183.384 195.973 183.384C195.653 183.384 195.337 183.464 195.025 183.624C194.713 183.776 194.437 183.988 194.197 184.26C193.965 184.524 193.797 184.828 193.693 185.172V189H192.877V182.748H193.621V184.164C193.789 183.86 194.009 183.596 194.281 183.372C194.553 183.14 194.861 182.96 195.205 182.832C195.549 182.704 195.905 182.64 196.273 182.64C196.617 182.64 196.909 182.704 197.149 182.832C197.389 182.96 197.581 183.144 197.725 183.384C197.869 183.616 197.973 183.9 198.037 184.236C198.101 184.564 198.133 184.932 198.133 185.34V189ZM202.814 188.7C202.75 188.724 202.65 188.768 202.514 188.832C202.378 188.896 202.214 188.952 202.022 189C201.83 189.048 201.622 189.072 201.398 189.072C201.166 189.072 200.946 189.028 200.738 188.94C200.538 188.852 200.378 188.72 200.258 188.544C200.138 188.36 200.078 188.136 200.078 187.872V183.396H199.214V182.748H200.078V180.636H200.894V182.748H202.334V183.396H200.894V187.644C200.91 187.868 200.99 188.036 201.134 188.148C201.286 188.26 201.458 188.316 201.65 188.316C201.874 188.316 202.078 188.28 202.262 188.208C202.446 188.128 202.558 188.072 202.598 188.04L202.814 188.7ZM206.428 189.12C205.98 189.12 205.564 189.036 205.18 188.868C204.796 188.692 204.464 188.456 204.184 188.16C203.904 187.856 203.684 187.508 203.524 187.116C203.372 186.724 203.296 186.304 203.296 185.856C203.296 185.272 203.428 184.736 203.692 184.248C203.964 183.76 204.336 183.372 204.808 183.084C205.28 182.788 205.816 182.64 206.416 182.64C207.032 182.64 207.568 182.788 208.024 183.084C208.488 183.38 208.852 183.772 209.116 184.26C209.38 184.74 209.512 185.268 209.512 185.844C209.512 185.908 209.512 185.972 209.512 186.036C209.512 186.092 209.508 186.136 209.5 186.168H204.148C204.188 186.616 204.312 187.016 204.52 187.368C204.736 187.712 205.012 187.988 205.348 188.196C205.692 188.396 206.064 188.496 206.464 188.496C206.872 188.496 207.256 188.392 207.616 188.184C207.984 187.976 208.24 187.704 208.384 187.368L209.092 187.56C208.964 187.856 208.768 188.124 208.504 188.364C208.24 188.604 207.928 188.792 207.568 188.928C207.216 189.056 206.836 189.12 206.428 189.12ZM204.124 185.58H208.744C208.712 185.124 208.588 184.724 208.372 184.38C208.164 184.036 207.888 183.768 207.544 183.576C207.208 183.376 206.836 183.276 206.428 183.276C206.02 183.276 205.648 183.376 205.312 183.576C204.976 183.768 204.7 184.04 204.484 184.392C204.276 184.736 204.156 185.132 204.124 185.58ZM213.891 183.468C213.347 183.484 212.867 183.636 212.451 183.924C212.043 184.212 211.755 184.608 211.587 185.112V189H210.771V182.748H211.539V184.248C211.755 183.808 212.039 183.452 212.391 183.18C212.751 182.908 213.131 182.756 213.531 182.724C213.611 182.716 213.679 182.712 213.735 182.712C213.799 182.712 213.851 182.716 213.891 182.724V183.468ZM214.451 187.2C214.451 186.808 214.563 186.472 214.787 186.192C215.011 185.904 215.319 185.684 215.711 185.532C216.111 185.372 216.571 185.292 217.091 185.292C217.395 185.292 217.711 185.316 218.039 185.364C218.367 185.412 218.659 185.484 218.915 185.58V185.052C218.915 184.524 218.759 184.104 218.447 183.792C218.135 183.48 217.703 183.324 217.151 183.324C216.815 183.324 216.483 183.388 216.155 183.516C215.835 183.636 215.499 183.816 215.147 184.056L214.835 183.48C215.243 183.2 215.643 182.992 216.035 182.856C216.427 182.712 216.827 182.64 217.235 182.64C218.003 182.64 218.611 182.86 219.059 183.3C219.507 183.74 219.731 184.348 219.731 185.124V188.016C219.731 188.128 219.755 188.212 219.803 188.268C219.851 188.316 219.927 188.344 220.031 188.352V189C219.943 189.008 219.867 189.016 219.803 189.024C219.739 189.032 219.691 189.032 219.659 189.024C219.459 189.016 219.307 188.952 219.203 188.832C219.099 188.712 219.043 188.584 219.035 188.448L219.023 187.992C218.743 188.352 218.379 188.632 217.931 188.832C217.483 189.024 217.027 189.12 216.563 189.12C216.163 189.12 215.799 189.036 215.471 188.868C215.151 188.692 214.899 188.46 214.715 188.172C214.539 187.876 214.451 187.552 214.451 187.2ZM218.639 187.68C218.727 187.568 218.795 187.46 218.843 187.356C218.891 187.252 218.915 187.16 218.915 187.08V186.168C218.643 186.064 218.359 185.984 218.063 185.928C217.775 185.872 217.483 185.844 217.187 185.844C216.603 185.844 216.131 185.96 215.771 186.192C215.411 186.424 215.231 186.74 215.231 187.14C215.231 187.372 215.291 187.592 215.411 187.8C215.531 188 215.707 188.168 215.939 188.304C216.171 188.432 216.443 188.496 216.755 188.496C217.147 188.496 217.511 188.42 217.847 188.268C218.191 188.116 218.455 187.92 218.639 187.68ZM224.206 189.12C223.75 189.12 223.33 189.036 222.946 188.868C222.57 188.692 222.238 188.452 221.95 188.148C221.67 187.844 221.45 187.496 221.29 187.104C221.138 186.712 221.062 186.296 221.062 185.856C221.062 185.264 221.194 184.724 221.458 184.236C221.722 183.748 222.09 183.36 222.562 183.072C223.034 182.784 223.578 182.64 224.194 182.64C224.778 182.64 225.294 182.776 225.742 183.048C226.19 183.312 226.522 183.672 226.738 184.128L225.946 184.38C225.77 184.06 225.522 183.812 225.202 183.636C224.89 183.452 224.542 183.36 224.158 183.36C223.742 183.36 223.362 183.468 223.018 183.684C222.674 183.9 222.398 184.196 222.19 184.572C221.99 184.948 221.89 185.376 221.89 185.856C221.89 186.328 221.994 186.756 222.202 187.14C222.41 187.524 222.686 187.832 223.03 188.064C223.374 188.288 223.754 188.4 224.17 188.4C224.442 188.4 224.702 188.352 224.95 188.256C225.206 188.16 225.426 188.032 225.61 187.872C225.802 187.704 225.93 187.524 225.994 187.332L226.798 187.572C226.686 187.868 226.498 188.136 226.234 188.376C225.978 188.608 225.674 188.792 225.322 188.928C224.978 189.056 224.606 189.12 224.206 189.12ZM231.08 188.7C231.016 188.724 230.916 188.768 230.78 188.832C230.644 188.896 230.48 188.952 230.288 189C230.096 189.048 229.888 189.072 229.664 189.072C229.432 189.072 229.212 189.028 229.004 188.94C228.804 188.852 228.644 188.72 228.524 188.544C228.404 188.36 228.344 188.136 228.344 187.872V183.396H227.48V182.748H228.344V180.636H229.16V182.748H230.6V183.396H229.16V187.644C229.176 187.868 229.256 188.036 229.4 188.148C229.552 188.26 229.724 188.316 229.916 188.316C230.14 188.316 230.344 188.28 230.528 188.208C230.712 188.128 230.824 188.072 230.864 188.04L231.08 188.7ZM232.099 189V182.748H232.915V189H232.099ZM232.099 181.44V180.24H232.915V181.44H232.099ZM236.573 189L234.041 182.748H234.893L237.029 188.184L239.177 182.748H239.98L237.449 189H236.573ZM243.6 189.12C243.152 189.12 242.736 189.036 242.352 188.868C241.968 188.692 241.636 188.456 241.356 188.16C241.076 187.856 240.856 187.508 240.696 187.116C240.544 186.724 240.468 186.304 240.468 185.856C240.468 185.272 240.6 184.736 240.864 184.248C241.136 183.76 241.508 183.372 241.98 183.084C242.452 182.788 242.988 182.64 243.588 182.64C244.204 182.64 244.74 182.788 245.196 183.084C245.66 183.38 246.024 183.772 246.288 184.26C246.552 184.74 246.684 185.268 246.684 185.844C246.684 185.908 246.684 185.972 246.684 186.036C246.684 186.092 246.68 186.136 246.672 186.168H241.32C241.36 186.616 241.484 187.016 241.692 187.368C241.908 187.712 242.184 187.988 242.52 188.196C242.864 188.396 243.236 188.496 243.636 188.496C244.044 188.496 244.428 188.392 244.788 188.184C245.156 187.976 245.412 187.704 245.556 187.368L246.264 187.56C246.136 187.856 245.94 188.124 245.676 188.364C245.412 188.604 245.1 188.792 244.74 188.928C244.388 189.056 244.008 189.12 243.6 189.12ZM241.296 185.58H245.916C245.884 185.124 245.76 184.724 245.544 184.38C245.336 184.036 245.06 183.768 244.716 183.576C244.38 183.376 244.008 183.276 243.6 183.276C243.192 183.276 242.82 183.376 242.484 183.576C242.148 183.768 241.872 184.04 241.656 184.392C241.448 184.736 241.328 185.132 241.296 185.58ZM253.51 189.084C253.086 189.084 252.694 188.996 252.334 188.82C251.974 188.644 251.662 188.408 251.398 188.112C251.142 187.808 250.942 187.464 250.798 187.08C250.654 186.696 250.582 186.3 250.582 185.892C250.582 185.452 250.65 185.04 250.786 184.656C250.93 184.264 251.13 183.916 251.386 183.612C251.65 183.308 251.958 183.072 252.31 182.904C252.662 182.728 253.054 182.64 253.486 182.64C254.022 182.64 254.486 182.776 254.878 183.048C255.278 183.32 255.614 183.656 255.886 184.056V182.748H256.618V189.024C256.618 189.6 256.478 190.084 256.198 190.476C255.926 190.876 255.554 191.176 255.082 191.376C254.618 191.576 254.11 191.676 253.558 191.676C252.846 191.676 252.27 191.548 251.83 191.292C251.39 191.036 251.03 190.692 250.75 190.26L251.254 189.864C251.502 190.256 251.83 190.548 252.238 190.74C252.654 190.932 253.094 191.028 253.558 191.028C253.966 191.028 254.338 190.952 254.674 190.8C255.018 190.656 255.29 190.436 255.49 190.14C255.698 189.844 255.802 189.472 255.802 189.024V187.788C255.562 188.18 255.234 188.496 254.818 188.736C254.402 188.968 253.966 189.084 253.51 189.084ZM253.738 188.4C253.986 188.4 254.222 188.356 254.446 188.268C254.678 188.18 254.89 188.064 255.082 187.92C255.274 187.768 255.434 187.6 255.562 187.416C255.69 187.232 255.77 187.044 255.802 186.852V184.92C255.682 184.616 255.51 184.348 255.286 184.116C255.062 183.876 254.806 183.692 254.518 183.564C254.238 183.428 253.946 183.36 253.642 183.36C253.29 183.36 252.974 183.436 252.694 183.588C252.422 183.732 252.19 183.928 251.998 184.176C251.814 184.416 251.67 184.688 251.566 184.992C251.462 185.296 251.41 185.6 251.41 185.904C251.41 186.24 251.47 186.56 251.59 186.864C251.71 187.16 251.874 187.428 252.082 187.668C252.298 187.9 252.546 188.08 252.826 188.208C253.114 188.336 253.418 188.4 253.738 188.4ZM257.916 187.2C257.916 186.808 258.028 186.472 258.252 186.192C258.476 185.904 258.784 185.684 259.176 185.532C259.576 185.372 260.036 185.292 260.556 185.292C260.86 185.292 261.176 185.316 261.504 185.364C261.832 185.412 262.124 185.484 262.38 185.58V185.052C262.38 184.524 262.224 184.104 261.912 183.792C261.6 183.48 261.168 183.324 260.616 183.324C260.28 183.324 259.948 183.388 259.62 183.516C259.3 183.636 258.964 183.816 258.612 184.056L258.3 183.48C258.708 183.2 259.108 182.992 259.5 182.856C259.892 182.712 260.292 182.64 260.7 182.64C261.468 182.64 262.076 182.86 262.524 183.3C262.972 183.74 263.196 184.348 263.196 185.124V188.016C263.196 188.128 263.22 188.212 263.268 188.268C263.316 188.316 263.392 188.344 263.496 188.352V189C263.408 189.008 263.332 189.016 263.268 189.024C263.204 189.032 263.156 189.032 263.124 189.024C262.924 189.016 262.772 188.952 262.668 188.832C262.564 188.712 262.508 188.584 262.5 188.448L262.488 187.992C262.208 188.352 261.844 188.632 261.396 188.832C260.948 189.024 260.492 189.12 260.028 189.12C259.628 189.12 259.264 189.036 258.936 188.868C258.616 188.692 258.364 188.46 258.18 188.172C258.004 187.876 257.916 187.552 257.916 187.2ZM262.104 187.68C262.192 187.568 262.26 187.46 262.308 187.356C262.356 187.252 262.38 187.16 262.38 187.08V186.168C262.108 186.064 261.824 185.984 261.528 185.928C261.24 185.872 260.948 185.844 260.652 185.844C260.068 185.844 259.596 185.96 259.236 186.192C258.876 186.424 258.696 186.74 258.696 187.14C258.696 187.372 258.756 187.592 258.876 187.8C258.996 188 259.172 188.168 259.404 188.304C259.636 188.432 259.908 188.496 260.22 188.496C260.612 188.496 260.976 188.42 261.312 188.268C261.656 188.116 261.92 187.92 262.104 187.68ZM274.259 189H273.443V185.508C273.443 184.78 273.327 184.244 273.095 183.9C272.863 183.556 272.519 183.384 272.063 183.384C271.591 183.384 271.167 183.552 270.791 183.888C270.423 184.224 270.163 184.656 270.011 185.184V189H269.195V185.508C269.195 184.772 269.083 184.236 268.859 183.9C268.635 183.556 268.291 183.384 267.827 183.384C267.363 183.384 266.943 183.548 266.567 183.876C266.191 184.204 265.927 184.636 265.775 185.172V189H264.959V182.748H265.703V184.164C265.967 183.676 266.303 183.3 266.711 183.036C267.127 182.772 267.587 182.64 268.091 182.64C268.611 182.64 269.031 182.788 269.351 183.084C269.671 183.38 269.867 183.768 269.939 184.248C270.227 183.72 270.571 183.32 270.971 183.048C271.379 182.776 271.839 182.64 272.351 182.64C272.703 182.64 272.999 182.704 273.239 182.832C273.487 182.96 273.683 183.144 273.827 183.384C273.979 183.616 274.087 183.9 274.151 184.236C274.223 184.564 274.259 184.932 274.259 185.34V189ZM278.686 189.12C278.238 189.12 277.822 189.036 277.438 188.868C277.054 188.692 276.722 188.456 276.442 188.16C276.162 187.856 275.942 187.508 275.782 187.116C275.63 186.724 275.554 186.304 275.554 185.856C275.554 185.272 275.686 184.736 275.95 184.248C276.222 183.76 276.594 183.372 277.066 183.084C277.538 182.788 278.074 182.64 278.674 182.64C279.29 182.64 279.826 182.788 280.282 183.084C280.746 183.38 281.11 183.772 281.374 184.26C281.638 184.74 281.77 185.268 281.77 185.844C281.77 185.908 281.77 185.972 281.77 186.036C281.77 186.092 281.766 186.136 281.758 186.168H276.406C276.446 186.616 276.57 187.016 276.778 187.368C276.994 187.712 277.27 187.988 277.606 188.196C277.95 188.396 278.322 188.496 278.722 188.496C279.13 188.496 279.514 188.392 279.874 188.184C280.242 187.976 280.498 187.704 280.642 187.368L281.35 187.56C281.222 187.856 281.026 188.124 280.762 188.364C280.498 188.604 280.186 188.792 279.826 188.928C279.474 189.056 279.094 189.12 278.686 189.12ZM276.382 185.58H281.002C280.97 185.124 280.846 184.724 280.63 184.38C280.422 184.036 280.146 183.768 279.802 183.576C279.466 183.376 279.094 183.276 278.686 183.276C278.278 183.276 277.906 183.376 277.57 183.576C277.234 183.768 276.958 184.04 276.742 184.392C276.534 184.736 276.414 185.132 276.382 185.58ZM285.081 189.12C284.569 189.12 284.093 189.036 283.653 188.868C283.213 188.7 282.833 188.444 282.513 188.1L282.849 187.524C283.201 187.852 283.553 188.092 283.905 188.244C284.265 188.388 284.645 188.46 285.045 188.46C285.533 188.46 285.929 188.364 286.233 188.172C286.537 187.972 286.689 187.688 286.689 187.32C286.689 187.072 286.613 186.884 286.461 186.756C286.317 186.62 286.105 186.512 285.825 186.432C285.553 186.344 285.225 186.252 284.841 186.156C284.409 186.036 284.045 185.912 283.749 185.784C283.461 185.648 283.241 185.48 283.089 185.28C282.945 185.072 282.873 184.804 282.873 184.476C282.873 184.068 282.973 183.732 283.173 183.468C283.381 183.196 283.661 182.992 284.013 182.856C284.373 182.712 284.773 182.64 285.213 182.64C285.693 182.64 286.117 182.716 286.485 182.868C286.853 183.02 287.153 183.232 287.385 183.504L286.989 184.056C286.765 183.8 286.497 183.612 286.185 183.492C285.881 183.364 285.541 183.3 285.165 183.3C284.909 183.3 284.665 183.336 284.433 183.408C284.201 183.472 284.009 183.584 283.857 183.744C283.713 183.896 283.641 184.108 283.641 184.38C283.641 184.604 283.697 184.78 283.809 184.908C283.921 185.028 284.089 185.132 284.313 185.22C284.537 185.3 284.813 185.388 285.141 185.484C285.613 185.612 286.025 185.744 286.377 185.88C286.729 186.008 287.001 186.176 287.193 186.384C287.385 186.592 287.481 186.884 287.481 187.26C287.481 187.844 287.261 188.3 286.821 188.628C286.381 188.956 285.801 189.12 285.081 189.12Z" fill="#9B51E0"/>
<rect x="130" y="173" width="46" height="24" rx="6" fill="#333333"/>
<path d="M142.272 180.54H143.064L144.264 183.564L145.476 180.54H146.28L144.792 184.176L146.424 188.028L149.508 180.48H150.42L146.808 189H146.064L144.276 184.788L142.476 189H141.744L138.144 180.48H139.044L142.14 188.028L143.76 184.176L142.272 180.54ZM153.306 189.12C152.858 189.12 152.442 189.036 152.058 188.868C151.682 188.692 151.354 188.456 151.074 188.16C150.802 187.856 150.59 187.512 150.438 187.128C150.286 186.736 150.21 186.324 150.21 185.892C150.21 185.444 150.286 185.028 150.438 184.644C150.59 184.252 150.806 183.908 151.086 183.612C151.366 183.308 151.694 183.072 152.07 182.904C152.454 182.728 152.87 182.64 153.318 182.64C153.766 182.64 154.178 182.728 154.554 182.904C154.93 183.072 155.258 183.308 155.538 183.612C155.818 183.908 156.034 184.252 156.186 184.644C156.338 185.028 156.414 185.444 156.414 185.892C156.414 186.324 156.338 186.736 156.186 187.128C156.034 187.512 155.818 187.856 155.538 188.16C155.266 188.456 154.938 188.692 154.554 188.868C154.178 189.036 153.762 189.12 153.306 189.12ZM151.038 185.904C151.038 186.368 151.138 186.792 151.338 187.176C151.546 187.552 151.822 187.852 152.166 188.076C152.51 188.292 152.89 188.4 153.306 188.4C153.722 188.4 154.102 188.288 154.446 188.064C154.79 187.84 155.066 187.536 155.274 187.152C155.482 186.76 155.586 186.336 155.586 185.88C155.586 185.416 155.482 184.992 155.274 184.608C155.066 184.224 154.79 183.92 154.446 183.696C154.102 183.472 153.722 183.36 153.306 183.36C152.89 183.36 152.51 183.476 152.166 183.708C151.83 183.94 151.558 184.248 151.35 184.632C151.142 185.008 151.038 185.432 151.038 185.904ZM160.899 183.468C160.355 183.484 159.875 183.636 159.459 183.924C159.051 184.212 158.763 184.608 158.595 185.112V189H157.779V182.748H158.547V184.248C158.763 183.808 159.047 183.452 159.399 183.18C159.759 182.908 160.139 182.756 160.539 182.724C160.619 182.716 160.687 182.712 160.743 182.712C160.807 182.712 160.859 182.716 160.899 182.724V183.468ZM166.45 189L164.134 185.796L162.802 187.044V189H161.986V180.24H162.802V186.168L166.342 182.76H167.242L164.686 185.316L167.338 189H166.45Z" fill="#FD5B71"/>
<path d="M135.18 160.07C134.527 160.07 133.915 159.93 133.346 159.65C132.786 159.361 132.296 158.978 131.876 158.502C131.456 158.017 131.129 157.475 130.896 156.878C130.663 156.271 130.546 155.646 130.546 155.002C130.546 154.33 130.663 153.695 130.896 153.098C131.129 152.491 131.451 151.955 131.862 151.488C132.282 151.021 132.772 150.657 133.332 150.396C133.901 150.125 134.517 149.99 135.18 149.99C136.141 149.99 136.935 150.191 137.56 150.592C138.185 150.993 138.657 151.516 138.974 152.16L138.008 152.832C137.719 152.253 137.322 151.824 136.818 151.544C136.314 151.264 135.759 151.124 135.152 151.124C134.648 151.124 134.191 151.231 133.78 151.446C133.369 151.661 133.015 151.955 132.716 152.328C132.427 152.692 132.203 153.107 132.044 153.574C131.895 154.041 131.82 154.526 131.82 155.03C131.82 155.562 131.904 156.066 132.072 156.542C132.249 157.009 132.497 157.424 132.814 157.788C133.131 158.143 133.5 158.423 133.92 158.628C134.34 158.833 134.793 158.936 135.278 158.936C135.847 158.936 136.389 158.791 136.902 158.502C137.415 158.213 137.901 157.769 138.358 157.172V158.474C137.462 159.538 136.403 160.07 135.18 160.07ZM138.204 155.996H136.062V155.044H139.268V160H138.204V155.996ZM140.414 157.886C140.414 157.419 140.545 157.018 140.806 156.682C141.077 156.337 141.445 156.071 141.912 155.884C142.379 155.697 142.92 155.604 143.536 155.604C143.863 155.604 144.208 155.632 144.572 155.688C144.936 155.735 145.258 155.809 145.538 155.912V155.38C145.538 154.82 145.37 154.381 145.034 154.064C144.698 153.737 144.222 153.574 143.606 153.574C143.205 153.574 142.817 153.649 142.444 153.798C142.08 153.938 141.693 154.143 141.282 154.414L140.834 153.546C141.31 153.219 141.786 152.977 142.262 152.818C142.738 152.65 143.233 152.566 143.746 152.566C144.679 152.566 145.417 152.827 145.958 153.35C146.499 153.863 146.77 154.582 146.77 155.506V158.6C146.77 158.749 146.798 158.861 146.854 158.936C146.919 159.001 147.022 159.039 147.162 159.048V160C147.041 160.019 146.933 160.033 146.84 160.042C146.756 160.051 146.686 160.056 146.63 160.056C146.341 160.056 146.121 159.977 145.972 159.818C145.832 159.659 145.753 159.491 145.734 159.314L145.706 158.852C145.389 159.263 144.973 159.58 144.46 159.804C143.947 160.028 143.438 160.14 142.934 160.14C142.449 160.14 142.015 160.042 141.632 159.846C141.249 159.641 140.951 159.37 140.736 159.034C140.521 158.689 140.414 158.306 140.414 157.886ZM145.174 158.404C145.286 158.273 145.375 158.143 145.44 158.012C145.505 157.872 145.538 157.755 145.538 157.662V156.752C145.249 156.64 144.945 156.556 144.628 156.5C144.311 156.435 143.998 156.402 143.69 156.402C143.065 156.402 142.556 156.528 142.164 156.78C141.781 157.023 141.59 157.359 141.59 157.788C141.59 158.021 141.651 158.25 141.772 158.474C141.903 158.689 142.089 158.866 142.332 159.006C142.584 159.146 142.892 159.216 143.256 159.216C143.639 159.216 144.003 159.141 144.348 158.992C144.693 158.833 144.969 158.637 145.174 158.404ZM159.758 160H158.526V155.912C158.526 155.147 158.4 154.582 158.148 154.218C157.905 153.854 157.541 153.672 157.056 153.672C156.561 153.672 156.113 153.854 155.712 154.218C155.311 154.573 155.026 155.035 154.858 155.604V160H153.626V155.912C153.626 155.137 153.505 154.573 153.262 154.218C153.019 153.854 152.655 153.672 152.17 153.672C151.685 153.672 151.237 153.849 150.826 154.204C150.425 154.549 150.14 155.011 149.972 155.59V160H148.74V152.692H149.86V154.26C150.159 153.719 150.546 153.303 151.022 153.014C151.498 152.715 152.035 152.566 152.632 152.566C153.239 152.566 153.724 152.734 154.088 153.07C154.452 153.397 154.676 153.821 154.76 154.344C155.087 153.765 155.483 153.327 155.95 153.028C156.417 152.72 156.949 152.566 157.546 152.566C157.966 152.566 158.316 152.645 158.596 152.804C158.885 152.953 159.114 153.168 159.282 153.448C159.45 153.719 159.571 154.041 159.646 154.414C159.721 154.787 159.758 155.193 159.758 155.632V160ZM164.908 160.14C164.357 160.14 163.853 160.042 163.396 159.846C162.948 159.641 162.556 159.365 162.22 159.02C161.893 158.665 161.636 158.259 161.45 157.802C161.272 157.345 161.184 156.859 161.184 156.346C161.184 155.655 161.342 155.025 161.66 154.456C161.977 153.887 162.416 153.429 162.976 153.084C163.545 152.739 164.194 152.566 164.922 152.566C165.659 152.566 166.298 152.743 166.84 153.098C167.39 153.443 167.815 153.901 168.114 154.47C168.422 155.03 168.576 155.637 168.576 156.29C168.576 156.383 168.571 156.477 168.562 156.57C168.562 156.654 168.557 156.719 168.548 156.766H162.486C162.523 157.242 162.654 157.667 162.878 158.04C163.111 158.404 163.41 158.693 163.774 158.908C164.138 159.113 164.53 159.216 164.95 159.216C165.398 159.216 165.818 159.104 166.21 158.88C166.611 158.656 166.886 158.362 167.036 157.998L168.1 158.292C167.941 158.647 167.703 158.964 167.386 159.244C167.078 159.524 166.709 159.743 166.28 159.902C165.86 160.061 165.402 160.14 164.908 160.14ZM162.444 155.912H167.428C167.39 155.436 167.255 155.016 167.022 154.652C166.788 154.288 166.49 154.003 166.126 153.798C165.762 153.593 165.36 153.49 164.922 153.49C164.492 153.49 164.096 153.593 163.732 153.798C163.368 154.003 163.069 154.288 162.836 154.652C162.612 155.016 162.481 155.436 162.444 155.912ZM173.682 160V150.06H177.126C178.19 150.06 179.077 150.284 179.786 150.732C180.505 151.171 181.042 151.768 181.396 152.524C181.751 153.271 181.928 154.101 181.928 155.016C181.928 156.024 181.732 156.901 181.34 157.648C180.948 158.395 180.393 158.973 179.674 159.384C178.956 159.795 178.106 160 177.126 160H173.682ZM180.654 155.016C180.654 154.269 180.514 153.607 180.234 153.028C179.964 152.449 179.567 151.997 179.044 151.67C178.522 151.343 177.882 151.18 177.126 151.18H174.942V158.88H177.126C177.892 158.88 178.536 158.712 179.058 158.376C179.581 158.031 179.978 157.569 180.248 156.99C180.519 156.402 180.654 155.744 180.654 155.016ZM186.742 160.14C186.191 160.14 185.687 160.042 185.23 159.846C184.782 159.641 184.39 159.365 184.054 159.02C183.727 158.665 183.47 158.259 183.284 157.802C183.106 157.345 183.018 156.859 183.018 156.346C183.018 155.655 183.176 155.025 183.494 154.456C183.811 153.887 184.25 153.429 184.81 153.084C185.379 152.739 186.028 152.566 186.756 152.566C187.493 152.566 188.132 152.743 188.674 153.098C189.224 153.443 189.649 153.901 189.948 154.47C190.256 155.03 190.41 155.637 190.41 156.29C190.41 156.383 190.405 156.477 190.396 156.57C190.396 156.654 190.391 156.719 190.382 156.766H184.32C184.357 157.242 184.488 157.667 184.712 158.04C184.945 158.404 185.244 158.693 185.608 158.908C185.972 159.113 186.364 159.216 186.784 159.216C187.232 159.216 187.652 159.104 188.044 158.88C188.445 158.656 188.72 158.362 188.87 157.998L189.934 158.292C189.775 158.647 189.537 158.964 189.22 159.244C188.912 159.524 188.543 159.743 188.114 159.902C187.694 160.061 187.236 160.14 186.742 160.14ZM184.278 155.912H189.262C189.224 155.436 189.089 155.016 188.856 154.652C188.622 154.288 188.324 154.003 187.96 153.798C187.596 153.593 187.194 153.49 186.756 153.49C186.326 153.49 185.93 153.593 185.566 153.798C185.202 154.003 184.903 154.288 184.67 154.652C184.446 155.016 184.315 155.436 184.278 155.912ZM193.688 160L190.818 152.692H192.106L194.402 158.824L196.698 152.692H197.902L195.032 160H193.688ZM202.123 160.14C201.572 160.14 201.068 160.042 200.611 159.846C200.163 159.641 199.771 159.365 199.435 159.02C199.108 158.665 198.851 158.259 198.665 157.802C198.487 157.345 198.399 156.859 198.399 156.346C198.399 155.655 198.557 155.025 198.875 154.456C199.192 153.887 199.631 153.429 200.191 153.084C200.76 152.739 201.409 152.566 202.137 152.566C202.874 152.566 203.513 152.743 204.055 153.098C204.605 153.443 205.03 153.901 205.329 154.47C205.637 155.03 205.791 155.637 205.791 156.29C205.791 156.383 205.786 156.477 205.777 156.57C205.777 156.654 205.772 156.719 205.763 156.766H199.701C199.738 157.242 199.869 157.667 200.093 158.04C200.326 158.404 200.625 158.693 200.989 158.908C201.353 159.113 201.745 159.216 202.165 159.216C202.613 159.216 203.033 159.104 203.425 158.88C203.826 158.656 204.101 158.362 204.251 157.998L205.315 158.292C205.156 158.647 204.918 158.964 204.601 159.244C204.293 159.524 203.924 159.743 203.495 159.902C203.075 160.061 202.617 160.14 202.123 160.14ZM199.659 155.912H204.643C204.605 155.436 204.47 155.016 204.237 154.652C204.003 154.288 203.705 154.003 203.341 153.798C202.977 153.593 202.575 153.49 202.137 153.49C201.707 153.49 201.311 153.593 200.947 153.798C200.583 154.003 200.284 154.288 200.051 154.652C199.827 155.016 199.696 155.436 199.659 155.912ZM207.188 149.78H208.42V158.11C208.42 158.511 208.476 158.759 208.588 158.852C208.7 158.945 208.835 158.992 208.994 158.992C209.19 158.992 209.377 158.973 209.554 158.936C209.731 158.889 209.881 158.843 210.002 158.796L210.198 159.804C209.993 159.888 209.75 159.958 209.47 160.014C209.19 160.07 208.943 160.098 208.728 160.098C208.252 160.098 207.874 159.963 207.594 159.692C207.323 159.421 207.188 159.043 207.188 158.558V149.78ZM214.4 160.14C213.849 160.14 213.345 160.042 212.888 159.846C212.44 159.641 212.048 159.365 211.712 159.02C211.385 158.665 211.129 158.259 210.942 157.802C210.765 157.345 210.676 156.859 210.676 156.346C210.676 155.655 210.835 155.025 211.152 154.456C211.469 153.887 211.908 153.429 212.468 153.084C213.037 152.739 213.686 152.566 214.414 152.566C215.151 152.566 215.791 152.743 216.332 153.098C216.883 153.443 217.307 153.901 217.606 154.47C217.914 155.03 218.068 155.637 218.068 156.29C218.068 156.383 218.063 156.477 218.054 156.57C218.054 156.654 218.049 156.719 218.04 156.766H211.978C212.015 157.242 212.146 157.667 212.37 158.04C212.603 158.404 212.902 158.693 213.266 158.908C213.63 159.113 214.022 159.216 214.442 159.216C214.89 159.216 215.31 159.104 215.702 158.88C216.103 158.656 216.379 158.362 216.528 157.998L217.592 158.292C217.433 158.647 217.195 158.964 216.878 159.244C216.57 159.524 216.201 159.743 215.772 159.902C215.352 160.061 214.895 160.14 214.4 160.14ZM211.936 155.912H216.92C216.883 155.436 216.747 155.016 216.514 154.652C216.281 154.288 215.982 154.003 215.618 153.798C215.254 153.593 214.853 153.49 214.414 153.49C213.985 153.49 213.588 153.593 213.224 153.798C212.86 154.003 212.561 154.288 212.328 154.652C212.104 155.016 211.973 155.436 211.936 155.912ZM223.371 160.14C222.774 160.14 222.242 159.991 221.775 159.692C221.309 159.393 220.94 159.015 220.669 158.558V162.982H219.437V152.692H220.529V154.064C220.819 153.616 221.197 153.257 221.663 152.986C222.13 152.706 222.639 152.566 223.189 152.566C223.693 152.566 224.155 152.669 224.575 152.874C224.995 153.079 225.359 153.359 225.667 153.714C225.975 154.069 226.213 154.475 226.381 154.932C226.559 155.38 226.647 155.851 226.647 156.346C226.647 157.037 226.507 157.671 226.227 158.25C225.957 158.829 225.574 159.291 225.079 159.636C224.585 159.972 224.015 160.14 223.371 160.14ZM222.993 159.076C223.357 159.076 223.684 159.001 223.973 158.852C224.272 158.693 224.524 158.488 224.729 158.236C224.944 157.975 225.107 157.681 225.219 157.354C225.331 157.027 225.387 156.691 225.387 156.346C225.387 155.982 225.322 155.637 225.191 155.31C225.07 154.983 224.893 154.694 224.659 154.442C224.435 154.19 224.169 153.994 223.861 153.854C223.563 153.705 223.236 153.63 222.881 153.63C222.657 153.63 222.424 153.672 222.181 153.756C221.948 153.84 221.724 153.961 221.509 154.12C221.295 154.269 221.113 154.442 220.963 154.638C220.814 154.834 220.716 155.044 220.669 155.268V157.354C220.809 157.671 220.996 157.961 221.229 158.222C221.463 158.483 221.733 158.693 222.041 158.852C222.349 159.001 222.667 159.076 222.993 159.076ZM239.178 160H237.946V155.912C237.946 155.147 237.82 154.582 237.568 154.218C237.325 153.854 236.961 153.672 236.476 153.672C235.981 153.672 235.533 153.854 235.132 154.218C234.731 154.573 234.446 155.035 234.278 155.604V160H233.046V155.912C233.046 155.137 232.925 154.573 232.682 154.218C232.439 153.854 232.075 153.672 231.59 153.672C231.105 153.672 230.657 153.849 230.246 154.204C229.845 154.549 229.56 155.011 229.392 155.59V160H228.16V152.692H229.28V154.26C229.579 153.719 229.966 153.303 230.442 153.014C230.918 152.715 231.455 152.566 232.052 152.566C232.659 152.566 233.144 152.734 233.508 153.07C233.872 153.397 234.096 153.821 234.18 154.344C234.507 153.765 234.903 153.327 235.37 153.028C235.837 152.72 236.369 152.566 236.966 152.566C237.386 152.566 237.736 152.645 238.016 152.804C238.305 152.953 238.534 153.168 238.702 153.448C238.87 153.719 238.991 154.041 239.066 154.414C239.141 154.787 239.178 155.193 239.178 155.632V160ZM244.328 160.14C243.777 160.14 243.273 160.042 242.816 159.846C242.368 159.641 241.976 159.365 241.64 159.02C241.313 158.665 241.056 158.259 240.87 157.802C240.692 157.345 240.604 156.859 240.604 156.346C240.604 155.655 240.762 155.025 241.08 154.456C241.397 153.887 241.836 153.429 242.396 153.084C242.965 152.739 243.614 152.566 244.342 152.566C245.079 152.566 245.718 152.743 246.26 153.098C246.81 153.443 247.235 153.901 247.534 154.47C247.842 155.03 247.996 155.637 247.996 156.29C247.996 156.383 247.991 156.477 247.982 156.57C247.982 156.654 247.977 156.719 247.968 156.766H241.906C241.943 157.242 242.074 157.667 242.298 158.04C242.531 158.404 242.83 158.693 243.194 158.908C243.558 159.113 243.95 159.216 244.37 159.216C244.818 159.216 245.238 159.104 245.63 158.88C246.031 158.656 246.306 158.362 246.456 157.998L247.52 158.292C247.361 158.647 247.123 158.964 246.806 159.244C246.498 159.524 246.129 159.743 245.7 159.902C245.28 160.061 244.822 160.14 244.328 160.14ZM241.864 155.912H246.848C246.81 155.436 246.675 155.016 246.442 154.652C246.208 154.288 245.91 154.003 245.546 153.798C245.182 153.593 244.78 153.49 244.342 153.49C243.912 153.49 243.516 153.593 243.152 153.798C242.788 154.003 242.489 154.288 242.256 154.652C242.032 155.016 241.901 155.436 241.864 155.912ZM253.077 159.636C252.974 159.683 252.834 159.743 252.657 159.818C252.479 159.893 252.274 159.958 252.041 160.014C251.807 160.07 251.56 160.098 251.299 160.098C251 160.098 250.725 160.047 250.473 159.944C250.221 159.832 250.02 159.664 249.871 159.44C249.721 159.207 249.647 158.917 249.647 158.572V153.658H248.653V152.692H249.647V150.256H250.879V152.692H252.517V153.658H250.879V158.194C250.897 158.455 250.986 158.651 251.145 158.782C251.303 158.903 251.49 158.964 251.705 158.964C251.947 158.964 252.171 158.922 252.377 158.838C252.582 158.754 252.717 158.693 252.783 158.656L253.077 159.636Z" fill="white"/>
<circle cx="92" cy="167" r="22" fill="#9B51E0"/>
<path d="M101 158H83C82.1716 158 81.5 158.672 81.5 159.5V171.5C81.5 172.328 82.1716 173 83 173H101C101.828 173 102.5 172.328 102.5 171.5V159.5C102.5 158.672 101.828 158 101 158Z" stroke="white" stroke-width="2" stroke-linejoin="round"/>
<path d="M94.25 176L93.875 173H90.125L89.75 176H94.25Z" fill="white" stroke="white" stroke-width="2" stroke-linecap="round" stroke-linejoin="round"/>
<path d="M97.25 176H86.75" stroke="white" stroke-width="2" stroke-linecap="round" stroke-linejoin="round"/>
<path d="M81.5 169.25V171.5C81.5011 171.897 81.6595 172.278 81.9406 172.559C82.2216 172.84 82.6025 172.999 83 173H101C101.397 172.999 101.778 172.84 102.059 172.559C102.34 172.278 102.499 171.897 102.5 171.5V169.25H81.5ZM92 172.25C91.8517 172.25 91.7067 172.206 91.5833 172.124C91.46 172.041 91.3639 171.924 91.3071 171.787C91.2503 171.65 91.2355 171.499 91.2644 171.354C91.2933 171.208 91.3648 171.075 91.4697 170.97C91.5746 170.865 91.7082 170.793 91.8537 170.764C91.9992 170.735 92.15 170.75 92.287 170.807C92.4241 170.864 92.5412 170.96 92.6236 171.083C92.706 171.207 92.75 171.352 92.75 171.5C92.75 171.699 92.671 171.89 92.5303 172.03C92.3897 172.171 92.1989 172.25 92 172.25Z" fill="white"/>
<rect y="24" width="236" height="84" rx="12" fill="#1F1F1F"/>
<rect x="149" y="68" width="56" height="24" rx="6" fill="#333333"/>
<path d="M157.504 79.68C157.504 79.16 157.592 78.652 157.768 78.156C157.952 77.652 158.216 77.196 158.56 76.788C158.904 76.372 159.328 76.044 159.832 75.804C160.336 75.556 160.908 75.432 161.548 75.432C162.308 75.432 162.956 75.608 163.492 75.96C164.036 76.304 164.436 76.748 164.692 77.292L164.032 77.7C163.848 77.324 163.616 77.028 163.336 76.812C163.056 76.588 162.756 76.428 162.436 76.332C162.124 76.236 161.812 76.188 161.5 76.188C160.988 76.188 160.536 76.292 160.144 76.5C159.752 76.7 159.42 76.972 159.148 77.316C158.884 77.652 158.684 78.032 158.548 78.456C158.412 78.872 158.344 79.296 158.344 79.728C158.344 80.2 158.424 80.652 158.584 81.084C158.744 81.516 158.968 81.9 159.256 82.236C159.544 82.564 159.88 82.828 160.264 83.028C160.656 83.22 161.08 83.316 161.536 83.316C161.856 83.316 162.184 83.26 162.52 83.148C162.856 83.036 163.168 82.864 163.456 82.632C163.752 82.4 163.988 82.1 164.164 81.732L164.86 82.092C164.684 82.516 164.412 82.876 164.044 83.172C163.676 83.468 163.264 83.692 162.808 83.844C162.36 83.996 161.92 84.072 161.488 84.072C160.904 84.072 160.368 83.948 159.88 83.7C159.392 83.444 158.968 83.108 158.608 82.692C158.256 82.268 157.984 81.796 157.792 81.276C157.6 80.748 157.504 80.216 157.504 79.68ZM168.791 84.12C168.343 84.12 167.927 84.036 167.543 83.868C167.167 83.692 166.839 83.456 166.559 83.16C166.287 82.856 166.075 82.512 165.923 82.128C165.771 81.736 165.695 81.324 165.695 80.892C165.695 80.444 165.771 80.028 165.923 79.644C166.075 79.252 166.291 78.908 166.571 78.612C166.851 78.308 167.179 78.072 167.555 77.904C167.939 77.728 168.355 77.64 168.803 77.64C169.251 77.64 169.663 77.728 170.039 77.904C170.415 78.072 170.743 78.308 171.023 78.612C171.303 78.908 171.519 79.252 171.671 79.644C171.823 80.028 171.899 80.444 171.899 80.892C171.899 81.324 171.823 81.736 171.671 82.128C171.519 82.512 171.303 82.856 171.023 83.16C170.751 83.456 170.423 83.692 170.039 83.868C169.663 84.036 169.247 84.12 168.791 84.12ZM166.523 80.904C166.523 81.368 166.623 81.792 166.823 82.176C167.031 82.552 167.307 82.852 167.651 83.076C167.995 83.292 168.375 83.4 168.791 83.4C169.207 83.4 169.587 83.288 169.931 83.064C170.275 82.84 170.551 82.536 170.759 82.152C170.967 81.76 171.071 81.336 171.071 80.88C171.071 80.416 170.967 79.992 170.759 79.608C170.551 79.224 170.275 78.92 169.931 78.696C169.587 78.472 169.207 78.36 168.791 78.36C168.375 78.36 167.995 78.476 167.651 78.708C167.315 78.94 167.043 79.248 166.835 79.632C166.627 80.008 166.523 80.432 166.523 80.904ZM172.843 80.892C172.843 80.3 172.963 79.76 173.203 79.272C173.451 78.776 173.791 78.38 174.223 78.084C174.655 77.788 175.147 77.64 175.699 77.64C176.219 77.64 176.683 77.78 177.091 78.06C177.507 78.332 177.831 78.664 178.063 79.056V75.24H178.879V83.016C178.879 83.128 178.903 83.212 178.951 83.268C178.999 83.316 179.071 83.344 179.167 83.352V84C179.007 84.024 178.883 84.032 178.795 84.024C178.627 84.016 178.479 83.948 178.351 83.82C178.223 83.692 178.159 83.552 178.159 83.4V82.788C177.911 83.196 177.575 83.52 177.151 83.76C176.727 84 176.287 84.12 175.831 84.12C175.399 84.12 174.999 84.032 174.631 83.856C174.271 83.68 173.955 83.44 173.683 83.136C173.419 82.832 173.211 82.488 173.059 82.104C172.915 81.712 172.843 81.308 172.843 80.892ZM178.063 81.852V79.92C177.959 79.632 177.791 79.372 177.559 79.14C177.327 78.9 177.063 78.712 176.767 78.576C176.479 78.432 176.191 78.36 175.903 78.36C175.567 78.36 175.263 78.432 174.991 78.576C174.719 78.712 174.483 78.9 174.283 79.14C174.091 79.38 173.943 79.652 173.839 79.956C173.735 80.26 173.683 80.572 173.683 80.892C173.683 81.228 173.739 81.548 173.851 81.852C173.971 82.156 174.139 82.428 174.355 82.668C174.571 82.9 174.819 83.08 175.099 83.208C175.379 83.336 175.683 83.4 176.011 83.4C176.219 83.4 176.435 83.36 176.659 83.28C176.883 83.2 177.095 83.092 177.295 82.956C177.503 82.812 177.675 82.644 177.811 82.452C177.947 82.26 178.031 82.06 178.063 81.852ZM180.728 84V77.748H181.544V84H180.728ZM180.728 76.44V75.24H181.544V76.44H180.728ZM188.597 84H187.781V80.508C187.781 79.772 187.673 79.236 187.457 78.9C187.241 78.556 186.901 78.384 186.437 78.384C186.117 78.384 185.801 78.464 185.489 78.624C185.177 78.776 184.901 78.988 184.661 79.26C184.429 79.524 184.261 79.828 184.157 80.172V84H183.341V77.748H184.085V79.164C184.253 78.86 184.473 78.596 184.745 78.372C185.017 78.14 185.325 77.96 185.669 77.832C186.013 77.704 186.369 77.64 186.737 77.64C187.081 77.64 187.373 77.704 187.613 77.832C187.853 77.96 188.045 78.144 188.189 78.384C188.333 78.616 188.437 78.9 188.501 79.236C188.565 79.564 188.597 79.932 188.597 80.34V84ZM192.846 84.084C192.422 84.084 192.03 83.996 191.67 83.82C191.31 83.644 190.998 83.408 190.734 83.112C190.478 82.808 190.278 82.464 190.134 82.08C189.99 81.696 189.918 81.3 189.918 80.892C189.918 80.452 189.986 80.04 190.122 79.656C190.266 79.264 190.466 78.916 190.722 78.612C190.986 78.308 191.294 78.072 191.646 77.904C191.998 77.728 192.39 77.64 192.822 77.64C193.358 77.64 193.822 77.776 194.214 78.048C194.614 78.32 194.95 78.656 195.222 79.056V77.748H195.954V84.024C195.954 84.6 195.814 85.084 195.534 85.476C195.262 85.876 194.89 86.176 194.418 86.376C193.954 86.576 193.446 86.676 192.894 86.676C192.182 86.676 191.606 86.548 191.166 86.292C190.726 86.036 190.366 85.692 190.086 85.26L190.59 84.864C190.838 85.256 191.166 85.548 191.574 85.74C191.99 85.932 192.43 86.028 192.894 86.028C193.302 86.028 193.674 85.952 194.01 85.8C194.354 85.656 194.626 85.436 194.826 85.14C195.034 84.844 195.138 84.472 195.138 84.024V82.788C194.898 83.18 194.57 83.496 194.154 83.736C193.738 83.968 193.302 84.084 192.846 84.084ZM193.074 83.4C193.322 83.4 193.558 83.356 193.782 83.268C194.014 83.18 194.226 83.064 194.418 82.92C194.61 82.768 194.77 82.6 194.898 82.416C195.026 82.232 195.106 82.044 195.138 81.852V79.92C195.018 79.616 194.846 79.348 194.622 79.116C194.398 78.876 194.142 78.692 193.854 78.564C193.574 78.428 193.282 78.36 192.978 78.36C192.626 78.36 192.31 78.436 192.03 78.588C191.758 78.732 191.526 78.928 191.334 79.176C191.15 79.416 191.006 79.688 190.902 79.992C190.798 80.296 190.746 80.6 190.746 80.904C190.746 81.24 190.806 81.56 190.926 81.864C191.046 82.16 191.21 82.428 191.418 82.668C191.634 82.9 191.882 83.08 192.162 83.208C192.45 83.336 192.754 83.4 193.074 83.4Z" fill="#FD5B71"/>
<rect x="76" y="68" width="65" height="24" rx="6" fill="#333333"/>
<path d="M85.068 84V75.48H88.596C88.964 75.48 89.3 75.556 89.604 75.708C89.916 75.86 90.184 76.068 90.408 76.332C90.632 76.588 90.808 76.876 90.936 77.196C91.064 77.508 91.128 77.828 91.128 78.156C91.128 78.62 91.024 79.06 90.816 79.476C90.616 79.884 90.332 80.216 89.964 80.472C89.596 80.728 89.164 80.856 88.668 80.856H85.908V84H85.068ZM85.908 80.112H88.632C88.968 80.112 89.26 80.02 89.508 79.836C89.756 79.652 89.948 79.412 90.084 79.116C90.22 78.82 90.288 78.5 90.288 78.156C90.288 77.804 90.208 77.48 90.048 77.184C89.888 76.888 89.676 76.656 89.412 76.488C89.156 76.312 88.872 76.224 88.56 76.224H85.908V80.112ZM94.9477 84.12C94.4997 84.12 94.0837 84.036 93.6997 83.868C93.3157 83.692 92.9837 83.456 92.7037 83.16C92.4237 82.856 92.2037 82.508 92.0437 82.116C91.8917 81.724 91.8157 81.304 91.8157 80.856C91.8157 80.272 91.9477 79.736 92.2117 79.248C92.4837 78.76 92.8557 78.372 93.3277 78.084C93.7997 77.788 94.3357 77.64 94.9357 77.64C95.5517 77.64 96.0877 77.788 96.5437 78.084C97.0077 78.38 97.3717 78.772 97.6357 79.26C97.8997 79.74 98.0317 80.268 98.0317 80.844C98.0317 80.908 98.0317 80.972 98.0317 81.036C98.0317 81.092 98.0277 81.136 98.0197 81.168H92.6677C92.7077 81.616 92.8317 82.016 93.0397 82.368C93.2557 82.712 93.5317 82.988 93.8677 83.196C94.2117 83.396 94.5837 83.496 94.9837 83.496C95.3917 83.496 95.7757 83.392 96.1357 83.184C96.5037 82.976 96.7597 82.704 96.9037 82.368L97.6117 82.56C97.4837 82.856 97.2877 83.124 97.0237 83.364C96.7597 83.604 96.4477 83.792 96.0877 83.928C95.7357 84.056 95.3557 84.12 94.9477 84.12ZM92.6437 80.58H97.2637C97.2317 80.124 97.1077 79.724 96.8917 79.38C96.6837 79.036 96.4077 78.768 96.0637 78.576C95.7277 78.376 95.3557 78.276 94.9477 78.276C94.5397 78.276 94.1677 78.376 93.8317 78.576C93.4957 78.768 93.2197 79.04 93.0037 79.392C92.7957 79.736 92.6757 80.132 92.6437 80.58ZM102.411 78.468C101.867 78.484 101.387 78.636 100.971 78.924C100.563 79.212 100.275 79.608 100.107 80.112V84H99.2906V77.748H100.059V79.248C100.275 78.808 100.559 78.452 100.911 78.18C101.271 77.908 101.651 77.756 102.051 77.724C102.131 77.716 102.199 77.712 102.255 77.712C102.319 77.712 102.371 77.716 102.411 77.724V78.468ZM105.55 84.12C105.038 84.12 104.562 84.036 104.122 83.868C103.682 83.7 103.302 83.444 102.982 83.1L103.318 82.524C103.67 82.852 104.022 83.092 104.374 83.244C104.734 83.388 105.114 83.46 105.514 83.46C106.002 83.46 106.398 83.364 106.702 83.172C107.006 82.972 107.158 82.688 107.158 82.32C107.158 82.072 107.082 81.884 106.93 81.756C106.786 81.62 106.574 81.512 106.294 81.432C106.022 81.344 105.694 81.252 105.31 81.156C104.878 81.036 104.514 80.912 104.218 80.784C103.93 80.648 103.71 80.48 103.558 80.28C103.414 80.072 103.342 79.804 103.342 79.476C103.342 79.068 103.442 78.732 103.642 78.468C103.85 78.196 104.13 77.992 104.482 77.856C104.842 77.712 105.242 77.64 105.682 77.64C106.162 77.64 106.586 77.716 106.954 77.868C107.322 78.02 107.622 78.232 107.854 78.504L107.458 79.056C107.234 78.8 106.966 78.612 106.654 78.492C106.35 78.364 106.01 78.3 105.634 78.3C105.378 78.3 105.134 78.336 104.902 78.408C104.67 78.472 104.478 78.584 104.326 78.744C104.182 78.896 104.11 79.108 104.11 79.38C104.11 79.604 104.166 79.78 104.278 79.908C104.39 80.028 104.558 80.132 104.782 80.22C105.006 80.3 105.282 80.388 105.61 80.484C106.082 80.612 106.494 80.744 106.846 80.88C107.198 81.008 107.47 81.176 107.662 81.384C107.854 81.592 107.95 81.884 107.95 82.26C107.95 82.844 107.73 83.3 107.29 83.628C106.85 83.956 106.27 84.12 105.55 84.12ZM111.962 84.12C111.514 84.12 111.098 84.036 110.714 83.868C110.338 83.692 110.01 83.456 109.73 83.16C109.458 82.856 109.246 82.512 109.094 82.128C108.942 81.736 108.866 81.324 108.866 80.892C108.866 80.444 108.942 80.028 109.094 79.644C109.246 79.252 109.462 78.908 109.742 78.612C110.022 78.308 110.35 78.072 110.726 77.904C111.11 77.728 111.526 77.64 111.974 77.64C112.422 77.64 112.834 77.728 113.21 77.904C113.586 78.072 113.914 78.308 114.194 78.612C114.474 78.908 114.69 79.252 114.842 79.644C114.994 80.028 115.07 80.444 115.07 80.892C115.07 81.324 114.994 81.736 114.842 82.128C114.69 82.512 114.474 82.856 114.194 83.16C113.922 83.456 113.594 83.692 113.21 83.868C112.834 84.036 112.418 84.12 111.962 84.12ZM109.694 80.904C109.694 81.368 109.794 81.792 109.994 82.176C110.202 82.552 110.478 82.852 110.822 83.076C111.166 83.292 111.546 83.4 111.962 83.4C112.378 83.4 112.758 83.288 113.102 83.064C113.446 82.84 113.722 82.536 113.93 82.152C114.138 81.76 114.242 81.336 114.242 80.88C114.242 80.416 114.138 79.992 113.93 79.608C113.722 79.224 113.446 78.92 113.102 78.696C112.758 78.472 112.378 78.36 111.962 78.36C111.546 78.36 111.166 78.476 110.822 78.708C110.486 78.94 110.214 79.248 110.006 79.632C109.798 80.008 109.694 80.432 109.694 80.904ZM121.691 84H120.875V80.508C120.875 79.772 120.767 79.236 120.551 78.9C120.335 78.556 119.995 78.384 119.531 78.384C119.211 78.384 118.895 78.464 118.583 78.624C118.271 78.776 117.995 78.988 117.755 79.26C117.523 79.524 117.355 79.828 117.251 80.172V84H116.435V77.748H117.179V79.164C117.347 78.86 117.567 78.596 117.839 78.372C118.111 78.14 118.419 77.96 118.763 77.832C119.107 77.704 119.463 77.64 119.831 77.64C120.175 77.64 120.467 77.704 120.707 77.832C120.947 77.96 121.139 78.144 121.283 78.384C121.427 78.616 121.531 78.9 121.595 79.236C121.659 79.564 121.691 79.932 121.691 80.34V84ZM122.927 82.2C122.927 81.808 123.039 81.472 123.263 81.192C123.487 80.904 123.795 80.684 124.187 80.532C124.587 80.372 125.047 80.292 125.567 80.292C125.871 80.292 126.187 80.316 126.515 80.364C126.843 80.412 127.135 80.484 127.391 80.58V80.052C127.391 79.524 127.235 79.104 126.923 78.792C126.611 78.48 126.179 78.324 125.627 78.324C125.291 78.324 124.959 78.388 124.631 78.516C124.311 78.636 123.975 78.816 123.623 79.056L123.311 78.48C123.719 78.2 124.119 77.992 124.511 77.856C124.903 77.712 125.303 77.64 125.711 77.64C126.479 77.64 127.087 77.86 127.535 78.3C127.983 78.74 128.207 79.348 128.207 80.124V83.016C128.207 83.128 128.231 83.212 128.279 83.268C128.327 83.316 128.403 83.344 128.507 83.352V84C128.419 84.008 128.343 84.016 128.279 84.024C128.215 84.032 128.167 84.032 128.135 84.024C127.935 84.016 127.783 83.952 127.679 83.832C127.575 83.712 127.519 83.584 127.511 83.448L127.499 82.992C127.219 83.352 126.855 83.632 126.407 83.832C125.959 84.024 125.503 84.12 125.039 84.12C124.639 84.12 124.275 84.036 123.947 83.868C123.627 83.692 123.375 83.46 123.191 83.172C123.015 82.876 122.927 82.552 122.927 82.2ZM127.115 82.68C127.203 82.568 127.271 82.46 127.319 82.356C127.367 82.252 127.391 82.16 127.391 82.08V81.168C127.119 81.064 126.835 80.984 126.539 80.928C126.251 80.872 125.959 80.844 125.663 80.844C125.079 80.844 124.607 80.96 124.247 81.192C123.887 81.424 123.707 81.74 123.707 82.14C123.707 82.372 123.767 82.592 123.887 82.8C124.007 83 124.183 83.168 124.415 83.304C124.647 83.432 124.919 83.496 125.231 83.496C125.623 83.496 125.987 83.42 126.323 83.268C126.667 83.116 126.931 82.92 127.115 82.68ZM130.006 75.24H130.822V82.584C130.822 82.896 130.878 83.1 130.99 83.196C131.102 83.292 131.238 83.34 131.398 83.34C131.542 83.34 131.686 83.324 131.83 83.292C131.974 83.26 132.098 83.228 132.202 83.196L132.346 83.856C132.194 83.92 132.006 83.972 131.782 84.012C131.566 84.052 131.378 84.072 131.218 84.072C130.85 84.072 130.554 83.964 130.33 83.748C130.114 83.532 130.006 83.236 130.006 82.86V75.24Z" fill="#5988FF"/>
<path d="M80.83 45.116H82.02L83.336 48.574L84.666 45.116H85.856L84.134 49.442L85.842 53.544L89.202 45.06H90.574L86.416 55H85.324L83.35 50.31L81.362 55H80.27L76.126 45.06H77.484L80.858 53.544L82.552 49.442L80.83 45.116ZM93.9546 55.14C93.4039 55.14 92.8999 55.042 92.4426 54.846C91.9946 54.6407 91.6026 54.3653 91.2666 54.02C90.9399 53.6653 90.6832 53.2593 90.4966 52.802C90.3192 52.3447 90.2306 51.8593 90.2306 51.346C90.2306 50.6553 90.3892 50.0253 90.7066 49.456C91.0239 48.8867 91.4626 48.4293 92.0226 48.084C92.5919 47.7387 93.2406 47.566 93.9686 47.566C94.7059 47.566 95.3452 47.7433 95.8866 48.098C96.4372 48.4433 96.8619 48.9007 97.1606 49.47C97.4686 50.03 97.6226 50.6367 97.6226 51.29C97.6226 51.3833 97.6179 51.4767 97.6086 51.57C97.6086 51.654 97.6039 51.7193 97.5946 51.766H91.5326C91.5699 52.242 91.7006 52.6667 91.9246 53.04C92.1579 53.404 92.4566 53.6933 92.8206 53.908C93.1846 54.1133 93.5766 54.216 93.9966 54.216C94.4446 54.216 94.8646 54.104 95.2566 53.88C95.6579 53.656 95.9332 53.362 96.0826 52.998L97.1466 53.292C96.9879 53.6467 96.7499 53.964 96.4326 54.244C96.1246 54.524 95.7559 54.7433 95.3266 54.902C94.9066 55.0607 94.4492 55.14 93.9546 55.14ZM91.4906 50.912H96.4746C96.4372 50.436 96.3019 50.016 96.0686 49.652C95.8352 49.288 95.5366 49.0033 95.1726 48.798C94.8086 48.5927 94.4072 48.49 93.9686 48.49C93.5392 48.49 93.1426 48.5927 92.7786 48.798C92.4146 49.0033 92.1159 49.288 91.8826 49.652C91.6586 50.016 91.5279 50.436 91.4906 50.912ZM102.744 55.14C102.175 55.14 101.657 55 101.19 54.72C100.723 54.44 100.355 54.076 100.084 53.628V55H98.992V44.78H100.224V49.148C100.532 48.672 100.91 48.2893 101.358 48C101.806 47.7107 102.329 47.566 102.926 47.566C103.43 47.566 103.883 47.6733 104.284 47.888C104.685 48.0933 105.026 48.378 105.306 48.742C105.595 49.0967 105.815 49.5027 105.964 49.96C106.123 50.408 106.202 50.8793 106.202 51.374C106.202 51.8873 106.113 52.3727 105.936 52.83C105.768 53.278 105.525 53.6793 105.208 54.034C104.891 54.3793 104.522 54.65 104.102 54.846C103.691 55.042 103.239 55.14 102.744 55.14ZM102.436 54.076C102.8 54.076 103.136 54.0013 103.444 53.852C103.752 53.7027 104.018 53.502 104.242 53.25C104.466 52.998 104.639 52.7087 104.76 52.382C104.881 52.0553 104.942 51.7193 104.942 51.374C104.942 50.898 104.839 50.45 104.634 50.03C104.438 49.61 104.158 49.274 103.794 49.022C103.439 48.7607 103.024 48.63 102.548 48.63C102.203 48.63 101.881 48.7093 101.582 48.868C101.283 49.0267 101.017 49.2367 100.784 49.498C100.56 49.75 100.373 50.03 100.224 50.338V52.452C100.271 52.6853 100.369 52.9 100.518 53.096C100.667 53.292 100.849 53.4647 101.064 53.614C101.279 53.754 101.503 53.866 101.736 53.95C101.979 54.034 102.212 54.076 102.436 54.076ZM111.452 55V45.06H114.896C115.96 45.06 116.846 45.284 117.556 45.732C118.274 46.1707 118.811 46.768 119.166 47.524C119.52 48.2707 119.698 49.1013 119.698 50.016C119.698 51.024 119.502 51.9013 119.11 52.648C118.718 53.3947 118.162 53.9733 117.444 54.384C116.725 54.7947 115.876 55 114.896 55H111.452ZM118.424 50.016C118.424 49.2693 118.284 48.6067 118.004 48.028C117.733 47.4493 117.336 46.9967 116.814 46.67C116.291 46.3433 115.652 46.18 114.896 46.18H112.712V53.88H114.896C115.661 53.88 116.305 53.712 116.828 53.376C117.35 53.0307 117.747 52.5687 118.018 51.99C118.288 51.402 118.424 50.744 118.424 50.016ZM124.511 55.14C123.961 55.14 123.457 55.042 122.999 54.846C122.551 54.6407 122.159 54.3653 121.823 54.02C121.497 53.6653 121.24 53.2593 121.053 52.802C120.876 52.3447 120.787 51.8593 120.787 51.346C120.787 50.6553 120.946 50.0253 121.263 49.456C121.581 48.8867 122.019 48.4293 122.579 48.084C123.149 47.7387 123.797 47.566 124.525 47.566C125.263 47.566 125.902 47.7433 126.443 48.098C126.994 48.4433 127.419 48.9007 127.717 49.47C128.025 50.03 128.179 50.6367 128.179 51.29C128.179 51.3833 128.175 51.4767 128.165 51.57C128.165 51.654 128.161 51.7193 128.151 51.766H122.089C122.127 52.242 122.257 52.6667 122.481 53.04C122.715 53.404 123.013 53.6933 123.377 53.908C123.741 54.1133 124.133 54.216 124.553 54.216C125.001 54.216 125.421 54.104 125.813 53.88C126.215 53.656 126.49 53.362 126.639 52.998L127.703 53.292C127.545 53.6467 127.307 53.964 126.989 54.244C126.681 54.524 126.313 54.7433 125.883 54.902C125.463 55.0607 125.006 55.14 124.511 55.14ZM122.047 50.912H127.031C126.994 50.436 126.859 50.016 126.625 49.652C126.392 49.288 126.093 49.0033 125.729 48.798C125.365 48.5927 124.964 48.49 124.525 48.49C124.096 48.49 123.699 48.5927 123.335 48.798C122.971 49.0033 122.673 49.288 122.439 49.652C122.215 50.016 122.085 50.436 122.047 50.912ZM131.457 55L128.587 47.692H129.875L132.171 53.824L134.467 47.692H135.671L132.801 55H131.457ZM139.892 55.14C139.341 55.14 138.837 55.042 138.38 54.846C137.932 54.6407 137.54 54.3653 137.204 54.02C136.877 53.6653 136.621 53.2593 136.434 52.802C136.257 52.3447 136.168 51.8593 136.168 51.346C136.168 50.6553 136.327 50.0253 136.644 49.456C136.961 48.8867 137.4 48.4293 137.96 48.084C138.529 47.7387 139.178 47.566 139.906 47.566C140.643 47.566 141.283 47.7433 141.824 48.098C142.375 48.4433 142.799 48.9007 143.098 49.47C143.406 50.03 143.56 50.6367 143.56 51.29C143.56 51.3833 143.555 51.4767 143.546 51.57C143.546 51.654 143.541 51.7193 143.532 51.766H137.47C137.507 52.242 137.638 52.6667 137.862 53.04C138.095 53.404 138.394 53.6933 138.758 53.908C139.122 54.1133 139.514 54.216 139.934 54.216C140.382 54.216 140.802 54.104 141.194 53.88C141.595 53.656 141.871 53.362 142.02 52.998L143.084 53.292C142.925 53.6467 142.687 53.964 142.37 54.244C142.062 54.524 141.693 54.7433 141.264 54.902C140.844 55.0607 140.387 55.14 139.892 55.14ZM137.428 50.912H142.412C142.375 50.436 142.239 50.016 142.006 49.652C141.773 49.288 141.474 49.0033 141.11 48.798C140.746 48.5927 140.345 48.49 139.906 48.49C139.477 48.49 139.08 48.5927 138.716 48.798C138.352 49.0033 138.053 49.288 137.82 49.652C137.596 50.016 137.465 50.436 137.428 50.912ZM144.958 44.78H146.19V53.11C146.19 53.5113 146.246 53.7587 146.358 53.852C146.47 53.9453 146.605 53.992 146.764 53.992C146.96 53.992 147.146 53.9733 147.324 53.936C147.501 53.8893 147.65 53.8427 147.772 53.796L147.968 54.804C147.762 54.888 147.52 54.958 147.24 55.014C146.96 55.07 146.712 55.098 146.498 55.098C146.022 55.098 145.644 54.9627 145.364 54.692C145.093 54.4213 144.958 54.0433 144.958 53.558V44.78ZM152.127 55.14C151.577 55.14 151.077 55.042 150.629 54.846C150.181 54.6407 149.794 54.3653 149.467 54.02C149.141 53.6653 148.889 53.2593 148.711 52.802C148.534 52.3447 148.445 51.864 148.445 51.36C148.445 50.8467 148.534 50.3613 148.711 49.904C148.889 49.4467 149.141 49.0453 149.467 48.7C149.794 48.3453 150.181 48.07 150.629 47.874C151.087 47.6687 151.586 47.566 152.127 47.566C152.678 47.566 153.177 47.6687 153.625 47.874C154.073 48.07 154.461 48.3453 154.787 48.7C155.123 49.0453 155.38 49.4467 155.557 49.904C155.735 50.3613 155.823 50.8467 155.823 51.36C155.823 51.864 155.735 52.3447 155.557 52.802C155.38 53.2593 155.128 53.6653 154.801 54.02C154.475 54.3653 154.083 54.6407 153.625 54.846C153.177 55.042 152.678 55.14 152.127 55.14ZM149.705 51.374C149.705 51.878 149.813 52.3353 150.027 52.746C150.251 53.1567 150.545 53.4833 150.909 53.726C151.273 53.9593 151.679 54.076 152.127 54.076C152.575 54.076 152.981 53.9547 153.345 53.712C153.719 53.4693 154.013 53.1427 154.227 52.732C154.451 52.312 154.563 51.85 154.563 51.346C154.563 50.842 154.451 50.3847 154.227 49.974C154.013 49.5633 153.719 49.2367 153.345 48.994C152.981 48.7513 152.575 48.63 152.127 48.63C151.679 48.63 151.273 48.756 150.909 49.008C150.545 49.2507 150.251 49.5773 150.027 49.988C149.813 50.3987 149.705 50.8607 149.705 51.374ZM161.25 55.14C160.653 55.14 160.121 54.9907 159.654 54.692C159.188 54.3933 158.819 54.0153 158.548 53.558V57.982H157.316V47.692H158.408V49.064C158.698 48.616 159.076 48.2567 159.542 47.986C160.009 47.706 160.518 47.566 161.068 47.566C161.572 47.566 162.034 47.6687 162.454 47.874C162.874 48.0793 163.238 48.3593 163.546 48.714C163.854 49.0687 164.092 49.4747 164.26 49.932C164.438 50.38 164.526 50.8513 164.526 51.346C164.526 52.0367 164.386 52.6713 164.106 53.25C163.836 53.8287 163.453 54.2907 162.958 54.636C162.464 54.972 161.894 55.14 161.25 55.14ZM160.872 54.076C161.236 54.076 161.563 54.0013 161.852 53.852C162.151 53.6933 162.403 53.488 162.608 53.236C162.823 52.9747 162.986 52.6807 163.098 52.354C163.21 52.0273 163.266 51.6913 163.266 51.346C163.266 50.982 163.201 50.6367 163.07 50.31C162.949 49.9833 162.772 49.694 162.538 49.442C162.314 49.19 162.048 48.994 161.74 48.854C161.442 48.7047 161.115 48.63 160.76 48.63C160.536 48.63 160.303 48.672 160.06 48.756C159.827 48.84 159.603 48.9613 159.388 49.12C159.174 49.2693 158.992 49.442 158.842 49.638C158.693 49.834 158.595 50.044 158.548 50.268V52.354C158.688 52.6713 158.875 52.9607 159.108 53.222C159.342 53.4833 159.612 53.6933 159.92 53.852C160.228 54.0013 160.546 54.076 160.872 54.076ZM177.057 55H175.825V50.912C175.825 50.1467 175.699 49.582 175.447 49.218C175.204 48.854 174.84 48.672 174.355 48.672C173.86 48.672 173.412 48.854 173.011 49.218C172.61 49.5727 172.325 50.0347 172.157 50.604V55H170.925V50.912C170.925 50.1373 170.804 49.5727 170.561 49.218C170.318 48.854 169.954 48.672 169.469 48.672C168.984 48.672 168.536 48.8493 168.125 49.204C167.724 49.5493 167.439 50.0113 167.271 50.59V55H166.039V47.692H167.159V49.26C167.458 48.7187 167.845 48.3033 168.321 48.014C168.797 47.7153 169.334 47.566 169.931 47.566C170.538 47.566 171.023 47.734 171.387 48.07C171.751 48.3967 171.975 48.8213 172.059 49.344C172.386 48.7653 172.782 48.3267 173.249 48.028C173.716 47.72 174.248 47.566 174.845 47.566C175.265 47.566 175.615 47.6453 175.895 47.804C176.184 47.9533 176.413 48.168 176.581 48.448C176.749 48.7187 176.87 49.0407 176.945 49.414C177.02 49.7873 177.057 50.1933 177.057 50.632V55ZM182.207 55.14C181.656 55.14 181.152 55.042 180.695 54.846C180.247 54.6407 179.855 54.3653 179.519 54.02C179.192 53.6653 178.935 53.2593 178.749 52.802C178.571 52.3447 178.483 51.8593 178.483 51.346C178.483 50.6553 178.641 50.0253 178.959 49.456C179.276 48.8867 179.715 48.4293 180.275 48.084C180.844 47.7387 181.493 47.566 182.221 47.566C182.958 47.566 183.597 47.7433 184.139 48.098C184.689 48.4433 185.114 48.9007 185.413 49.47C185.721 50.03 185.875 50.6367 185.875 51.29C185.875 51.3833 185.87 51.4767 185.861 51.57C185.861 51.654 185.856 51.7193 185.847 51.766H179.785C179.822 52.242 179.953 52.6667 180.177 53.04C180.41 53.404 180.709 53.6933 181.073 53.908C181.437 54.1133 181.829 54.216 182.249 54.216C182.697 54.216 183.117 54.104 183.509 53.88C183.91 53.656 184.185 53.362 184.335 52.998L185.399 53.292C185.24 53.6467 185.002 53.964 184.685 54.244C184.377 54.524 184.008 54.7433 183.579 54.902C183.159 55.0607 182.701 55.14 182.207 55.14ZM179.743 50.912H184.727C184.689 50.436 184.554 50.016 184.321 49.652C184.087 49.288 183.789 49.0033 183.425 48.798C183.061 48.5927 182.659 48.49 182.221 48.49C181.791 48.49 181.395 48.5927 181.031 48.798C180.667 49.0033 180.368 49.288 180.135 49.652C179.911 50.016 179.78 50.436 179.743 50.912ZM193.586 55H192.354V50.912C192.354 50.1373 192.233 49.5727 191.99 49.218C191.757 48.854 191.397 48.672 190.912 48.672C190.576 48.672 190.24 48.756 189.904 48.924C189.577 49.092 189.283 49.3207 189.022 49.61C188.77 49.89 188.588 50.2167 188.476 50.59V55H187.244V47.692H188.364V49.26C188.56 48.9147 188.812 48.616 189.12 48.364C189.428 48.112 189.778 47.916 190.17 47.776C190.562 47.636 190.973 47.566 191.402 47.566C191.822 47.566 192.172 47.6453 192.452 47.804C192.741 47.9533 192.965 48.168 193.124 48.448C193.292 48.7187 193.409 49.0407 193.474 49.414C193.549 49.7873 193.586 50.1933 193.586 50.632V55ZM199.213 54.636C199.111 54.6827 198.971 54.7433 198.793 54.818C198.616 54.8927 198.411 54.958 198.177 55.014C197.944 55.07 197.697 55.098 197.435 55.098C197.137 55.098 196.861 55.0467 196.609 54.944C196.357 54.832 196.157 54.664 196.007 54.44C195.858 54.2067 195.783 53.9173 195.783 53.572V48.658H194.789V47.692H195.783V45.256H197.015V47.692H198.653V48.658H197.015V53.194C197.034 53.4553 197.123 53.6513 197.281 53.782C197.44 53.9033 197.627 53.964 197.841 53.964C198.084 53.964 198.308 53.922 198.513 53.838C198.719 53.754 198.854 53.6933 198.919 53.656L199.213 54.636Z" fill="white"/>
<circle cx="38" cy="62" r="22" fill="#FD5B71"/>
<path d="M33.5001 68.2343C33.2617 68.2346 33.0314 68.1479 32.8523 67.9906L26.8523 62.7406C26.7468 62.6482 26.6622 62.5343 26.6043 62.4066C26.5463 62.2789 26.5164 62.1402 26.5164 62C26.5164 61.8597 26.5463 61.7211 26.6043 61.5933C26.6622 61.4656 26.7468 61.3517 26.8523 61.2593L32.8523 56.0093C33.0488 55.8374 33.3055 55.7506 33.566 55.7679C33.8266 55.7853 34.0695 55.9054 34.2414 56.1019C34.4134 56.2984 34.5002 56.5551 34.4828 56.8157C34.4655 57.0762 34.3453 57.3191 34.1489 57.4911L28.995 62L34.1484 66.5089C34.2992 66.6407 34.4062 66.8155 34.4551 67.0098C34.504 67.2041 34.4924 67.4086 34.422 67.5962C34.3515 67.7837 34.2255 67.9453 34.0608 68.0593C33.8961 68.1734 33.7005 68.2344 33.5001 68.2343V68.2343Z" fill="white"/>
<path d="M42.4999 68.2343C42.2995 68.2345 42.1038 68.1735 41.939 68.0595C41.7742 67.9455 41.6481 67.784 41.5776 67.5964C41.5071 67.4088 41.4955 67.2042 41.5444 67.0099C41.5932 66.8155 41.7003 66.6408 41.8511 66.5089L47.005 62L41.8516 57.4911C41.6551 57.3191 41.535 57.0762 41.5176 56.8157C41.5002 56.5551 41.5871 56.2984 41.759 56.1019C41.931 55.9054 42.1739 55.7853 42.4344 55.7679C42.6949 55.7506 42.9517 55.8374 43.1482 56.0093L49.1482 61.2593C49.2537 61.3517 49.3383 61.4656 49.3962 61.5933C49.4541 61.7211 49.4841 61.8597 49.4841 62C49.4841 62.1402 49.4541 62.2789 49.3962 62.4066C49.3383 62.5343 49.2537 62.6482 49.1482 62.7406L43.1482 67.9906C42.969 68.1481 42.7384 68.2348 42.4999 68.2343V68.2343Z" fill="white"/>
<path d="M35.75 70.4844C35.5967 70.4843 35.4456 70.4485 35.3086 70.3797C35.1716 70.3109 35.0525 70.2111 34.9609 70.0882C34.8693 69.9653 34.8077 69.8226 34.781 69.6717C34.7542 69.5207 34.7631 69.3656 34.8069 69.2187L39.3069 54.2187C39.3408 54.0914 39.3999 53.9723 39.4807 53.8682C39.5615 53.7642 39.6624 53.6774 39.7773 53.6131C39.8922 53.5488 40.0189 53.5081 40.1498 53.4936C40.2808 53.4792 40.4133 53.4911 40.5395 53.5287C40.6657 53.5664 40.7831 53.629 40.8847 53.7128C40.9863 53.7967 41.07 53.9001 41.1309 54.0169C41.1919 54.1337 41.2287 54.2615 41.2393 54.3928C41.2499 54.5241 41.2341 54.6562 41.1927 54.7812L36.6927 69.7812C36.6322 69.9843 36.5077 70.1624 36.3379 70.289C36.1681 70.4157 35.9619 70.4842 35.75 70.4844V70.4844Z" fill="white"/>
<defs>
<filter id="filter0_b_16_1152" x="57" y="-16" width="263" height="270" filterUnits="userSpaceOnUse" color-interpolation-filters="sRGB">
<feFlood flood-opacity="0" result="BackgroundImageFix"/>
<feGaussianBlur in="BackgroundImageFix" stdDeviation="8"/>
<feComposite in2="SourceAlpha" operator="in" result="effect1_backgroundBlur_16_1152"/>
<feBlend mode="normal" in="SourceGraphic" in2="effect1_backgroundBlur_16_1152" result="shape"/>
</filter>
</defs>
</svg>
