<svg width="37" height="36" viewBox="0 0 37 36" fill="none" xmlns="http://www.w3.org/2000/svg">
<g clip-path="url(#clip0_16_680)">
<path d="M36.1474 22.5297C36.0577 20.4671 35.699 18.1803 35.1609 16.028C34.6229 13.9654 33.9503 12.0373 33.1432 10.5576C30.0044 5.04231 26.5966 5.89426 22.5162 6.97041C21.2158 7.28429 19.8258 7.64301 18.391 7.77753H17.9426C16.5077 7.64301 15.1177 7.28429 13.8173 6.97041C9.73692 5.9391 6.32912 5.04231 3.19035 10.6024C2.38324 12.0821 1.6658 14.0102 1.17257 16.0728C0.634493 18.2251 0.275777 20.512 0.186098 22.5746C0.0964187 24.8614 0.320616 26.5205 0.813851 27.6863C1.30709 28.7625 2.02452 29.435 2.96615 29.7041C3.8181 29.9283 4.80457 29.8386 5.83588 29.3902C7.58462 28.6728 9.6024 27.1482 11.5753 25.3098C12.9654 23.9646 15.5661 23.292 18.1668 23.292C20.7675 23.292 23.3681 23.9646 24.7582 25.3098C26.7311 27.1482 28.7489 28.6728 30.4976 29.3902C31.5289 29.7938 32.5154 29.9283 33.3674 29.7041C34.2642 29.435 35.0264 28.8073 35.5197 27.6415C36.0129 26.5205 36.2371 24.8614 36.1474 22.5297ZM33.9951 27.0137C33.7261 27.6415 33.3674 28.0002 32.919 28.1347C32.4257 28.2692 31.798 28.1795 31.0805 27.9105C29.5112 27.2827 27.6727 25.8927 25.8792 24.1888C24.1753 22.4849 21.171 21.633 18.1668 21.633C15.1625 21.633 12.1583 22.4849 10.4095 24.0991C8.57109 25.803 6.73267 27.2379 5.20813 27.8208C4.49069 28.0899 3.86294 28.2244 3.36971 28.045C2.92131 27.9105 2.56259 27.5518 2.29356 26.924C1.93484 26.0721 1.75548 24.682 1.84516 22.6194C1.93484 20.6913 2.24872 18.4942 2.78679 16.4316C3.28003 14.5035 3.90778 12.7099 4.67005 11.3647C7.13623 6.92557 10.006 7.64301 13.4138 8.5398C14.8038 8.89852 16.2387 9.25723 17.808 9.39175C17.8529 9.39175 17.8529 9.39175 17.8977 9.39175H18.391C18.4358 9.39175 18.4358 9.39175 18.4806 9.39175C20.0949 9.25723 21.5297 8.89852 22.9198 8.5398C26.3276 7.68785 29.1973 6.92557 31.6635 11.3647C32.4257 12.7099 33.0535 14.4586 33.5467 16.4316C34.04 18.4942 34.3987 20.6465 34.4884 22.6194C34.578 24.682 34.3987 26.0721 33.9951 27.0137Z" fill="#B0A600"/>
<path d="M14.0416 13.786C13.5932 13.3825 13.0552 13.0686 12.4274 13.0238C12.3826 12.4409 12.1135 11.8579 11.71 11.4544L11.6651 11.4095C11.1719 10.9163 10.5441 10.6473 9.82672 10.6473C9.10928 10.6473 8.43669 10.9612 7.9883 11.4095C7.58474 11.8131 7.27086 12.396 7.22602 13.0238C6.59827 13.0686 6.0602 13.3377 5.6118 13.7412L5.56696 13.786C5.07372 14.2793 4.80469 14.907 4.80469 15.6245C4.80469 16.3419 5.11856 17.0145 5.56696 17.4629C6.01536 17.9113 6.55343 18.1803 7.22602 18.2252C7.27086 18.8529 7.5399 19.4358 7.9883 19.8394C8.48153 20.3326 9.10928 20.6017 9.82672 20.6017C10.5441 20.6017 11.2167 20.2878 11.6651 19.8394C12.0687 19.391 12.3826 18.8529 12.4274 18.2252C13.0552 18.1803 13.6381 17.9113 14.0416 17.4629C14.5349 16.9697 14.8039 16.3419 14.8039 15.6245C14.8039 14.907 14.49 14.2344 14.0416 13.786ZM12.9206 16.2971C12.7413 16.4764 12.5171 16.5661 12.2481 16.5661H11.6203C11.1719 16.5661 10.7683 16.9248 10.7683 17.418V18.001C10.7683 18.27 10.6787 18.4942 10.4993 18.6736C10.32 18.8529 10.0958 18.9426 9.82672 18.9426C9.55768 18.9426 9.33348 18.8529 9.15412 18.6736C8.97477 18.4942 8.88509 18.27 8.88509 18.001V17.3732C8.88509 16.9248 8.52637 16.5213 8.03313 16.5213H7.40538C7.13634 16.5213 6.91215 16.4316 6.73279 16.2522C6.59827 16.1177 6.46375 15.8935 6.46375 15.6245C6.46375 15.3554 6.55343 15.1312 6.73279 14.9519C6.73279 14.9519 6.73279 14.9519 6.77763 14.907C6.95699 14.7725 7.18118 14.6828 7.40538 14.6828H8.03313C8.48153 14.6828 8.88509 14.3241 8.88509 13.8309V13.2031C8.88509 12.9341 8.97477 12.7099 9.15412 12.5305C9.33348 12.3512 9.55768 12.2615 9.82672 12.2615C10.0958 12.2615 10.32 12.3512 10.4993 12.5305C10.4993 12.5305 10.4993 12.5305 10.5441 12.5754C10.6787 12.7547 10.7683 12.9789 10.7683 13.2031V13.8309C10.7683 14.2793 11.1271 14.6828 11.6203 14.6828H12.2481C12.5171 14.6828 12.7413 14.7725 12.9206 14.9519C13.1 15.1312 13.1897 15.3554 13.1897 15.6245C13.1897 15.8935 13.1 16.1177 12.9206 16.2971Z" fill="#B0A600"/>
<path d="M25.9688 14.0103C26.8355 14.0103 27.5382 13.3076 27.5382 12.4409C27.5382 11.5741 26.8355 10.8715 25.9688 10.8715C25.1021 10.8715 24.3994 11.5741 24.3994 12.4409C24.3994 13.3076 25.1021 14.0103 25.9688 14.0103Z" fill="#B0A600"/>
<path d="M25.9688 20.3775C26.8355 20.3775 27.5382 19.6748 27.5382 18.8081C27.5382 17.9413 26.8355 17.2387 25.9688 17.2387C25.1021 17.2387 24.3994 17.9413 24.3994 18.8081C24.3994 19.6748 25.1021 20.3775 25.9688 20.3775Z" fill="#B0A600"/>
<path d="M22.7852 17.1938C23.6519 17.1938 24.3546 16.4912 24.3546 15.6244C24.3546 14.7577 23.6519 14.0551 22.7852 14.0551C21.9185 14.0551 21.2158 14.7577 21.2158 15.6244C21.2158 16.4912 21.9185 17.1938 22.7852 17.1938Z" fill="#B0A600"/>
<path d="M29.1526 17.1938C30.0194 17.1938 30.722 16.4912 30.722 15.6244C30.722 14.7577 30.0194 14.0551 29.1526 14.0551C28.2859 14.0551 27.5833 14.7577 27.5833 15.6244C27.5833 16.4912 28.2859 17.1938 29.1526 17.1938Z" fill="#B0A600"/>
</g>
<defs>
<clipPath id="clip0_16_680">
<rect width="36" height="36" fill="white" transform="translate(0.166748)"/>
</clipPath>
</defs>
</svg>
