<svg width="37" height="36" viewBox="0 0 37 36" fill="none" xmlns="http://www.w3.org/2000/svg">
<path d="M26.1458 0.5625H11.5208C10.9243 0.563281 10.3524 0.800585 9.93062 1.22237C9.50884 1.64416 9.27153 2.216 9.27075 2.8125V33.1875C9.27153 33.784 9.50884 34.3558 9.93062 34.7776C10.3524 35.1994 10.9243 35.4367 11.5208 35.4375H26.1458C26.7422 35.4367 27.3141 35.1994 27.7359 34.7776C28.1577 34.3558 28.395 33.784 28.3958 33.1875V2.8125C28.395 2.216 28.1577 1.64416 27.7359 1.22237C27.3141 0.800585 26.7422 0.563281 26.1458 0.5625ZM21.4658 1.6875L21.1493 2.8125H16.4602L16.179 1.6875H21.4658ZM27.2708 33.1875C27.2704 33.4857 27.1517 33.7717 26.9408 33.9826C26.7299 34.1935 26.444 34.3121 26.1458 34.3125H11.5208C11.2225 34.3121 10.9366 34.1935 10.7257 33.9826C10.5148 33.7717 10.3961 33.4857 10.3958 33.1875V2.8125C10.3961 2.51425 10.5148 2.22833 10.7257 2.01744C10.9366 1.80654 11.2225 1.68789 11.5208 1.6875H15.0188L15.4751 3.51141C15.5055 3.6331 15.5758 3.74113 15.6746 3.81833C15.7735 3.89554 15.8953 3.93748 16.0208 3.9375H21.5754C21.698 3.9375 21.8173 3.89745 21.915 3.82346C22.0127 3.74946 22.0836 3.64557 22.1168 3.52758L22.6343 1.6875H26.1458C26.444 1.68789 26.7299 1.80654 26.9408 2.01744C27.1517 2.22833 27.2704 2.51425 27.2708 2.8125V33.1875Z" fill="#6E00FA"/>
<path d="M16.0208 32.0625H12.0833C11.9341 32.0625 11.791 32.1218 11.6855 32.2273C11.58 32.3327 11.5208 32.4758 11.5208 32.625C11.5208 32.7742 11.58 32.9173 11.6855 33.0227C11.791 33.1282 11.9341 33.1875 12.0833 33.1875H16.0208C16.1699 33.1875 16.313 33.1282 16.4185 33.0227C16.524 32.9173 16.5833 32.7742 16.5833 32.625C16.5833 32.4758 16.524 32.3327 16.4185 32.2273C16.313 32.1218 16.1699 32.0625 16.0208 32.0625Z" fill="#6E00FA"/>
<path d="M18.2708 32.0625H17.7083C17.5591 32.0625 17.416 32.1218 17.3105 32.2273C17.205 32.3327 17.1458 32.4758 17.1458 32.625C17.1458 32.7742 17.205 32.9173 17.3105 33.0227C17.416 33.1282 17.5591 33.1875 17.7083 33.1875H18.2708C18.4199 33.1875 18.563 33.1282 18.6685 33.0227C18.774 32.9173 18.8333 32.7742 18.8333 32.625C18.8333 32.4758 18.774 32.3327 18.6685 32.2273C18.563 32.1218 18.4199 32.0625 18.2708 32.0625Z" fill="#6E00FA"/>
<path d="M20.8102 14.7051C20.7468 14.6671 20.6766 14.642 20.6036 14.6311C20.5305 14.6202 20.456 14.6238 20.3843 14.6418C20.3127 14.6597 20.2452 14.6915 20.1859 14.7355C20.1265 14.7795 20.0764 14.8347 20.0384 14.8981L16.6634 20.5231C16.5867 20.651 16.5639 20.8042 16.6 20.9489C16.6362 21.0936 16.7284 21.2181 16.8564 21.2948C16.9843 21.3716 17.1375 21.3944 17.2822 21.3582C17.4269 21.322 17.5513 21.2298 17.6281 21.1019L21.0031 15.4769C21.0411 15.4135 21.0663 15.3433 21.0771 15.2703C21.088 15.1972 21.0844 15.1227 21.0665 15.051C21.0486 14.9794 21.0167 14.912 20.9727 14.8526C20.9288 14.7932 20.8735 14.7431 20.8102 14.7051Z" fill="#6E00FA"/>
<path d="M22.6476 14.836C22.6014 14.7783 22.5444 14.7303 22.4796 14.6946C22.4149 14.659 22.3438 14.6365 22.2704 14.6283C22.1221 14.6119 21.9733 14.655 21.8568 14.7483C21.7403 14.8415 21.6656 14.9772 21.6492 15.1255C21.6327 15.2738 21.6759 15.4226 21.7691 15.5391L23.7379 18L21.7691 20.461C21.6759 20.5774 21.6327 20.7262 21.6492 20.8745C21.6656 21.0228 21.7403 21.1585 21.8568 21.2518C21.9733 21.345 22.1221 21.3881 22.2704 21.3717C22.4187 21.3553 22.5544 21.2806 22.6476 21.1641L24.8976 18.3516C24.9775 18.2518 25.021 18.1278 25.021 18C25.021 17.8722 24.9775 17.7482 24.8976 17.6485L22.6476 14.836Z" fill="#6E00FA"/>
<path d="M15.0189 21.1641C15.1121 21.2806 15.2478 21.3552 15.3961 21.3717C15.5445 21.3881 15.6932 21.345 15.8097 21.2517C15.9262 21.1585 16.0009 21.0228 16.0173 20.8745C16.0338 20.7262 15.9906 20.5774 15.8974 20.4609L13.9286 18L15.8974 15.5391C15.9436 15.4814 15.9779 15.4152 15.9985 15.3442C16.0191 15.2732 16.0255 15.1989 16.0173 15.1255C16.0092 15.0521 15.9867 14.9809 15.951 14.9162C15.9154 14.8515 15.8674 14.7944 15.8097 14.7482C15.752 14.7021 15.6858 14.6677 15.6149 14.6471C15.5439 14.6266 15.4696 14.6202 15.3961 14.6283C15.3227 14.6364 15.2516 14.659 15.1869 14.6946C15.1221 14.7302 15.0651 14.7782 15.0189 14.8359L12.7689 17.6484C12.689 17.7482 12.6455 17.8722 12.6455 18C12.6455 18.1278 12.689 18.2518 12.7689 18.3516L15.0189 21.1641Z" fill="#6E00FA"/>
</svg>
