<svg width="37" height="36" viewBox="0 0 37 36" fill="none" xmlns="http://www.w3.org/2000/svg">
<g clip-path="url(#clip0_16_667)">
<path d="M18.5 0C8.57419 0 0.5 8.07497 0.5 18C0.5 27.925 8.57419 36 18.5 36C28.4258 36 36.5 27.925 36.5 18C36.5 8.07497 28.4258 0 18.5 0ZM18.5 34.5C9.40184 34.5 1.99998 27.0982 1.99998 18C1.99998 8.90184 9.40184 1.49998 18.5 1.49998C27.5982 1.49998 35 8.90184 35 18C35 27.0982 27.5982 34.5 18.5 34.5Z" fill="#FF4E4E"/>
<path d="M14.75 7.5H10.25C9.00927 7.5 8 8.50927 8 9.75V14.25C8 15.4907 9.00927 16.5 10.25 16.5H14.75C15.9907 16.5 17 15.4907 17 14.25V9.75C17 8.50927 15.9907 7.5 14.75 7.5ZM15.4999 14.25C15.4999 14.6638 15.163 15 14.7499 15H10.2499C9.83684 15 9.49991 14.6639 9.49991 14.25V9.75C9.49991 9.33621 9.83684 8.99998 10.2499 8.99998H14.7499C15.163 8.99998 15.4999 9.33614 15.4999 9.75V14.25Z" fill="#FF4E4E"/>
<path d="M26.75 7.5H22.25C21.0093 7.5 20 8.50927 20 9.75V14.25C20 15.4907 21.0093 16.5 22.25 16.5H26.75C27.9907 16.5 29 15.4907 29 14.25V9.75C29 8.50927 27.9907 7.5 26.75 7.5ZM27.5 14.25C27.5 14.6638 27.1631 15 26.75 15H22.25C21.8369 15 21.5 14.6639 21.5 14.25V9.75C21.5 9.33621 21.8369 8.99998 22.25 8.99998H26.75C27.1631 8.99998 27.5 9.33614 27.5 9.75V14.25Z" fill="#FF4E4E"/>
<path d="M14.75 19.5H10.25C9.00927 19.5 8 20.5092 8 21.75V26.25C8 27.4907 9.00927 28.5 10.25 28.5H14.75C15.9907 28.5 17 27.4907 17 26.25V21.75C17 20.5093 15.9907 19.5 14.75 19.5ZM15.4999 26.25C15.4999 26.6638 15.163 27 14.7499 27H10.2499C9.83684 27 9.49991 26.6638 9.49991 26.25V21.75C9.49991 21.3362 9.83684 20.9999 10.2499 20.9999H14.7499C15.163 20.9999 15.4999 21.3361 15.4999 21.75V26.25Z" fill="#FF4E4E"/>
<path d="M26.75 19.5H22.25C21.0093 19.5 20 20.5092 20 21.75V26.25C20 27.4907 21.0093 28.5 22.25 28.5H26.75C27.9907 28.5 29 27.4907 29 26.25V21.75C29 20.5093 27.9907 19.5 26.75 19.5ZM27.5 26.25C27.5 26.6638 27.1631 27 26.75 27H22.25C21.8369 27 21.5 26.6638 21.5 26.25V21.75C21.5 21.3362 21.8369 20.9999 22.25 20.9999H26.75C27.1631 20.9999 27.5 21.3361 27.5 21.75V26.25Z" fill="#FF4E4E"/>
</g>
<defs>
<clipPath id="clip0_16_667">
<rect width="36" height="36" fill="white" transform="translate(0.5)"/>
</clipPath>
</defs>
</svg>
